<svg width="105" height="24" viewBox="0 0 105 24" fill="none" xmlns="http://www.w3.org/2000/svg">
<path d="M44.7173 11.3968C44.7173 11.3968 46.8375 10.674 46.8375 8.26469C46.8375 5.44577 44.8378 4.04836 42.0912 4.04836H34.8873V19.3717H42.7176C45.1269 19.3717 47.4881 17.6852 47.4881 15.1072C47.4881 12.0474 44.7173 11.4209 44.7173 11.3968ZM38.6459 7.22868H41.4407C42.308 7.22868 42.8863 7.80692 42.8863 8.67428C42.8863 9.34889 42.3562 10.0717 41.3684 10.0717H38.6218V7.22868H38.6459ZM41.4648 16.1673H38.67V13.1556H41.3925C42.7658 13.1556 43.4163 13.758 43.4163 14.6494C43.4163 15.7577 42.5971 16.1673 41.4648 16.1673Z" fill="#E20015"/>
<path d="M55.7759 3.66273C51.3428 3.66273 48.7407 7.20446 48.7407 11.6858C48.7407 16.1913 51.3428 19.7089 55.7759 19.7089C60.2332 19.7089 62.8111 16.1913 62.8111 11.6858C62.8111 7.20446 60.2332 3.66273 55.7759 3.66273ZM55.7759 16.0467C53.6075 16.0467 52.5234 14.0952 52.5234 11.6858C52.5234 9.27649 53.6075 7.34902 55.7759 7.34902C57.9443 7.34902 59.0526 9.30058 59.0526 11.6858C59.0526 14.0952 57.9443 16.0467 55.7759 16.0467Z" fill="#E20015"/>
<path d="M70.9788 10.0474L70.4488 9.92698C69.1478 9.66195 68.1117 9.32464 68.1117 8.385C68.1117 7.37308 69.0996 6.96349 69.9669 6.96349C71.2439 6.96349 72.3762 7.58992 73.099 8.385L75.4843 6.02385C74.4001 4.79509 72.6413 3.61452 69.8946 3.61452C66.6662 3.61452 64.2327 5.42152 64.2327 8.43319C64.2327 11.1798 66.2084 12.5291 68.6177 13.035L69.1478 13.1555C71.1475 13.5651 71.8944 13.8783 71.8944 14.842C71.8944 15.7576 71.0752 16.3599 69.8224 16.3599C68.3286 16.3599 66.9794 15.7094 65.9434 14.3842L63.5099 16.7936C64.8592 18.4078 66.5698 19.6607 69.8705 19.6607C72.7376 19.6607 75.7975 18.0223 75.7975 14.6734C75.8216 11.1798 73.1713 10.5052 70.9788 10.0474Z" fill="#E20015"/>
<path d="M84.351 16.0467C82.6644 16.0467 80.9056 14.6493 80.9056 11.5895C80.9056 8.86692 82.544 7.34903 84.2546 7.34903C85.6038 7.34903 86.3989 7.97546 87.0253 9.05966L90.1092 7.01173C88.5673 4.67467 86.7362 3.68684 84.2064 3.68684C79.5805 3.68684 77.0748 7.27675 77.0748 11.6136C77.0748 16.1672 79.8455 19.733 84.1582 19.733C87.194 19.733 88.6395 18.6729 90.2056 16.4081L87.0976 14.312C86.4712 15.3239 85.7965 16.0467 84.351 16.0467Z" fill="#E20015"/>
<path d="M100.397 4.02393V9.66177H95.7469V4.02393H91.7234V19.3473H95.7469V13.2999H100.397V19.3473H104.42V4.02393H100.397Z" fill="#E20015"/>
<path d="M11.7097 0.0970001C5.30089 0.0970001 0.0967712 5.30117 0.0967712 11.71C0.0967712 18.1188 5.30089 23.323 11.7097 23.323C18.1185 23.323 23.3226 18.1188 23.3226 11.71C23.3226 5.30117 18.1185 0.0970001 11.7097 0.0970001ZM11.7097 22.2388C5.90322 22.2388 1.18096 17.5165 1.18096 11.71C1.18096 5.9035 5.90322 1.1812 11.7097 1.1812C17.5161 1.1812 22.2384 5.9035 22.2384 11.71C22.2384 17.5165 17.5161 22.2388 11.7097 22.2388Z" fill="#575757"/>
<path d="M16.5044 4.45786H15.7093V8.43326H7.7345V4.45786H6.91533C4.57829 6.02392 3.01224 8.67419 3.01224 11.71C3.01224 14.7457 4.57829 17.396 6.91533 18.9621H7.7345V14.9867H15.7093V18.9621H16.5044C18.8655 17.396 20.4075 14.7457 20.4075 11.71C20.4075 8.67419 18.8655 6.02392 16.5044 4.45786ZM6.62621 17.396C5.01197 15.9745 4.07234 13.9265 4.07234 11.71C4.07234 9.49337 5.01197 7.44543 6.62621 6.02392V17.396ZM15.7093 13.8784H7.7345V9.51746H15.7093C15.7093 9.54155 15.7093 13.8784 15.7093 13.8784ZM16.7935 17.3719V14.9626V8.43326V6.02392C18.3837 7.44543 19.3233 9.49337 19.3233 11.6859C19.3233 13.9025 18.3837 15.9504 16.7935 17.3719Z" fill="#575757"/>
</svg>
