<svg width="206" height="42" viewBox="0 0 206 42" fill="none" xmlns="http://www.w3.org/2000/svg">
<path d="M197.34 0H8.73999C6.61826 0 4.58342 0.842855 3.08313 2.34315C1.58284 3.84344 0.73999 5.87827 0.73999 8V34C0.73999 36.1217 1.58284 38.1566 3.08313 39.6569C4.58342 41.1571 6.61826 42 8.73999 42H197.34C199.462 42 201.497 41.1571 202.997 39.6569C204.497 38.1566 205.34 36.1217 205.34 34V8C205.34 6.94942 205.133 5.90914 204.731 4.93853C204.329 3.96793 203.74 3.08601 202.997 2.34315C202.254 1.60028 201.372 1.011 200.401 0.608964C199.431 0.206926 198.391 0 197.34 0V0ZM27.12 28.6H19.74V9H33.11V11.84H23.17V16.59H27.28C31.71 16.59 34.57 18.05 34.57 22.42C34.57 26.79 31.73 28.6 27.12 28.6ZM50.74 28.6H47.53V18.53L40.62 28.6H37.4V14.07H40.62V24.2L47.53 14.07H50.74V28.6ZM59.43 28.95C56.25 28.95 53.43 27.57 52.9 23.87H56C56.29 25.52 57.51 26.57 59.56 26.57C61.61 26.57 62.69 25.76 62.69 24.49C62.69 22.98 61.69 22.42 59.83 22.42H57.45V19.91H59.67C61.26 19.91 62.26 19.36 62.26 18.1C62.26 16.84 61.48 16.1 59.67 16.1C57.86 16.1 56.4 16.96 56.16 18.77H53.08C53.59 15.34 56.51 13.7 59.72 13.7C62.93 13.7 65.45 14.96 65.45 17.88C65.4693 18.5469 65.2749 19.2025 64.8954 19.7512C64.5158 20.2998 63.9708 20.7129 63.34 20.93C64.1112 21.0821 64.7994 21.5128 65.2734 22.1399C65.7474 22.767 65.974 23.5466 65.91 24.33C65.89 27.55 63.08 29 59.43 29V28.95ZM81.55 28.6H78.34V22.42H71.86V28.6H68.65V14.07H71.86V19.88H78.34V14.07H81.55V28.6ZM98.43 22.25H87.6C87.5999 23.3023 88.0145 24.3122 88.7538 25.0609C89.4932 25.8096 90.4978 26.2368 91.55 26.25C92.2778 26.3296 93.0124 26.1796 93.6507 25.8209C94.2891 25.4623 94.7993 24.913 95.11 24.25H98.27C97.8539 25.6567 96.979 26.8836 95.7847 27.7354C94.5905 28.5871 93.1455 29.0147 91.68 28.95C87.01 28.95 84.34 25.41 84.34 21.23C84.34 16.85 87.34 13.75 91.47 13.75C95.92 13.75 98.73 17.39 98.43 22.25ZM107.26 28.95C103.04 28.95 100.26 25.68 100.26 21.36C100.26 17.04 103.04 13.75 107.39 13.75C108.922 13.7071 110.42 14.2122 111.613 15.1745C112.806 16.1368 113.617 17.4933 113.9 19H110.77C110.613 18.2312 110.186 17.5441 109.566 17.0634C108.946 16.5827 108.174 16.3402 107.39 16.38C105.39 16.38 103.58 17.87 103.58 21.3C103.58 24.73 105.42 26.24 107.31 26.24C108.125 26.3131 108.939 26.0833 109.596 25.5945C110.252 25.1057 110.706 24.3921 110.87 23.59H114C113.703 25.1459 112.862 26.5452 111.627 27.5368C110.391 28.5283 108.843 29.047 107.26 29V28.95ZM124.79 22.77H116V19.88H124.8L124.79 22.77ZM137.56 28.6L132.78 22.25H131.27V28.6H128V14.07H131.24V19.72H133L137.19 14.07H140.86L135.38 21.12L141.24 28.6H137.56ZM155.79 28.6H152.58V16.6H148.31L148.09 19.73C147.69 25.81 146.09 28.59 142.72 28.59H142.13V26.06H142.45C143.64 26.06 144.75 24.79 145.04 19.28L145.31 14.07H155.79V28.6ZM166.15 28.6C164.77 32.36 163.83 33.35 160.56 33.35H159.1V30.87H160.32C161.72 30.87 162.32 30.76 162.96 28.87L163.12 28.52L157.86 14.07H161.37L164.66 24.49L168 14.07H171.29L166.15 28.6ZM179.43 28.98C175.6 28.98 172.43 26.25 172.43 20.66V19.34C172.51 14.07 174.97 10.27 180.13 9.48L185.2 8.7V11.51L180.29 12.32C177.67 12.75 175.56 14.02 175.05 17.61C175.562 16.753 176.299 16.0517 177.18 15.5813C178.06 15.1109 179.053 14.8892 180.05 14.94C183.42 14.94 186.36 17.26 186.36 21.82C186.36 26.38 183.08 29 179.43 29V28.98Z" fill="url(#paint0_linear_9_377)"/>
<defs>
<linearGradient id="paint0_linear_9_377" x1="0.729989" y1="0.060006" x2="205.73" y2="42.06" gradientUnits="userSpaceOnUse">
<stop stop-color="#4B6CB7"/>
<stop offset="1" stop-color="#182848"/>
</linearGradient>
</defs>
</svg>
