<svg width="228" height="42" viewBox="0 0 228 42" fill="none" xmlns="http://www.w3.org/2000/svg">
<path d="M133.3 17.4C132.9 17.2 132.4 17 131.9 17C131.3 17 130.8 17.1 130.4 17.4C130 17.7 129.6 18 129.4 18.5C129.2 18.9 129.1 19.3 129.1 19.8H134.7C134.7 19.3 134.6 18.8 134.3 18.4C134.1 18 133.7 17.6 133.3 17.4Z" fill="white"/>
<path d="M45.1 16.6C44.5 16 43.8 15.5 43.1 15.2C42.3 14.9 41.4 14.7 40.5 14.7H36.8V27.6H40.5C41.4 27.6 42.3 27.4 43.1 27.1C43.9 26.8 44.6 26.3 45.1 25.7C45.6 25.1 46.1 24.4 46.4 23.6C46.7 22.8 46.9 22 46.9 21.1C46.9 20.2 46.8 19.4 46.4 18.5C46.1 17.9 45.7 17.2 45.1 16.6Z" fill="white"/>
<path d="M82.3 18.1C81.9 17.8 81.4 17.7 80.8 17.7C80.4 17.7 80 17.8 79.6 17.9C79.3 18.1 79 18.3 78.7 18.6C78.5 18.9 78.3 19.3 78.1 19.7C78 20.2 78 20.6999 78 21.2999C78 22.3999 78.3 23.3 78.8 24C79.3 24.7 80 25 80.9 25C81.5 25 82 24.9 82.4 24.6C82.8 24.3 83.1 23.8999 83.4 23.2999C83.6 22.6999 83.7 22.0999 83.7 21.2999C83.7 20.5999 83.6 19.9 83.4 19.4C83.1 18.8 82.7 18.4 82.3 18.1Z" fill="white"/>
<path d="M23.4 14.4001C22.9 14.2001 22.4 14.1001 21.9 14.2001C21.4 14.3001 20.9 14.5001 20.6 14.9001C20.2 15.3001 20 15.7001 19.9 16.2001C19.8 16.7001 19.8 17.2001 20 17.7001C20.2 18.2001 20.5 18.6001 20.9 18.9001C21.3 19.2001 21.8 19.3001 22.3 19.4001C22.6 19.4001 23 19.3001 23.3 19.2001C23.6 19.1001 23.9 18.9001 24.2 18.6001C24.5 18.3001 24.6 18.1001 24.8 17.8001C24.9 17.5001 25 17.1001 25 16.8001C25 16.3001 24.8 15.8001 24.6 15.4001C24.2 14.9001 23.8 14.6001 23.4 14.4001Z" fill="white"/>
<path d="M207.6 18.1C207.2 17.8 206.7 17.7 206.1 17.7C205.7 17.7 205.3 17.8 204.9 17.9C204.5 18.1 204.3 18.3 204 18.6C203.8 18.9 203.6 19.3 203.4 19.7C203.2 20.1 203.2 20.6 203.2 21.2C203.2 22.3 203.5 23.2 204 23.9C204.5 24.5999 205.2 24.9 206.1 24.9C206.7 24.9 207.2 24.8 207.6 24.5C208 24.2 208.3 23.8 208.6 23.2C208.8 22.6 208.9 22 208.9 21.2C208.9 20.5 208.8 19.7999 208.6 19.2999C208.4 18.7999 208 18.4 207.6 18.1Z" fill="white"/>
<path d="M220.8 0H7C3.1 0 0 3.1 0 7V35C0 38.9 3.1 42 7 42H220.8C224.7 42 227.8 38.9 227.8 35V7C227.8 3.1 224.7 0 220.8 0ZM27.6 20.3C26.9 21.3 25.9 22.1 24.8 22.6C23.6 23.1 22.4 23.2 21.2 23C20 22.8 18.8 22.2 18 21.3C17.1 20.4 16.5 19.3 16.3 18.1C16.1 16.9 16.2 15.6 16.7 14.5C17.2 13.3 18 12.4 19 11.7C20 11 21.3 10.6 22.5 10.6C23.3 10.6 24.2 10.8 24.9 11.1C25.7 11.4 26.4 11.9 27 12.5C27.6 13.1 28.1 13.8 28.4 14.6C28.7 15.4 28.9 16.2 28.9 17C28.6 18.1 28.3 19.3 27.6 20.3ZM50.3 25.2C49.8 26.4 49 27.5 48 28.5C47 29.4 45.9 30.2 44.6 30.7C43.3 31.3 41.9 31.5 40.4 31.5H32.5V10.9H40.4C43.2 10.9 45.9 11.9 47.9 13.9C48.9 14.8 49.6 16 50.2 17.2C50.8 18.5 51 19.9 51 21.2C51.1 22.6 50.8 23.9 50.3 25.2ZM64 31.5H62.2V10.5H64V31.5ZM85.8 24.4C85.3 25.3 84.7 26 83.8 26.5C82.9 27 81.9 27.2 80.8 27.2C79.6 27.2 78.6 26.9 77.8 26.4C76.9 25.9 76.3 25.1 75.8 24.1C75.3 23.1 75.1 21.9 75.1 20.4V19.3C75.1 16.5 75.6 14.4 76.7 13C77.8 11.6 79.3 10.9 81.4 10.9C82 10.9 82.6 10.9 83.1 10.9C83.6 10.9 84 10.9 84.4 10.8C84.8 10.7 85.1 10.6 85.3 10.4L86.3 12.2C85.9 12.5 85.6 12.7 85.1 12.9C84.7 13 84.2 13.1 83.6 13.2C83 13.2 82.3 13.3 81.5 13.3C80.6 13.3 79.9 13.5 79.3 13.8C78.7 14.1 78.3 14.6 78 15.2C77.7 15.8 77.5 16.7 77.4 17.7H77.5C77.9 17 78.4 16.4 79.1 16C79.8 15.6 80.6 15.4 81.5 15.4C82.5 15.4 83.4 15.6 84.1 16.1C84.9 16.5 85.5 17.2 85.9 18C86.3 18.8 86.6 19.9 86.6 21.1C86.5 22.4 86.3 23.5 85.8 24.4ZM99.4 27H96.7V18.8L91.9 27H89V15H91.7V23.2L96.5 15H99.4V27ZM110.8 25.6C110.4 26.1 109.8 26.5 109.1 26.8C108.4 27.1 107.5 27.2 106.6 27.2C105.7 27.2 104.8 27.1 104.1 26.8C103.4 26.5 102.8 26.1 102.4 25.6C102 25.1 101.7 24.4 101.7 23.7H104.5C104.5 24.1 104.7 24.5 105.1 24.7C105.5 24.9 106 25.1 106.6 25.1C107.2 25.1 107.7 25 108.1 24.7C108.5 24.4 108.7 24 108.7 23.5C108.7 23.2 108.6 22.9 108.5 22.6C108.3 22.3 108.1 22.2 107.8 22C107.5 21.9 107.2 21.8 106.8 21.8H105V19.8H106.8C107.4 19.8 107.8 19.7 108.1 19.4C108.4 19.1 108.6 18.8 108.6 18.4C108.6 18 108.4 17.6 108.1 17.3C107.8 17 107.3 16.9 106.8 16.9C106.2 16.9 105.8 17 105.4 17.3C105 17.6 104.8 17.9 104.8 18.3H102C102 17.6 102.2 17 102.6 16.5C103 16 103.6 15.6 104.3 15.3C105 15 105.8 14.9 106.7 14.9C107.6 14.9 108.5 15 109.1 15.3C109.7 15.6 110.3 16 110.7 16.5C111.1 17 111.3 17.6 111.3 18.3C111.3 19 111.1 19.5 110.7 19.9C110.3 20.3 109.7 20.6 109.1 20.8V20.9C109.6 20.9 110 21.1 110.4 21.3C110.8 21.5 111.1 21.9 111.3 22.3C111.5 22.7 111.6 23.2 111.6 23.7C111.5 24.4 111.3 25 110.8 25.6ZM123.8 27H121.1V22.1H116.4V27H113.7V15H116.4V19.8H121.1V15H123.8V27ZM137.4 21.7H129C129 22.4 129.1 22.9 129.4 23.4C129.7 23.9 130 24.3 130.5 24.5C131 24.8 131.5 24.9 132.1 24.9C132.5 24.9 132.9 24.8 133.2 24.7C133.5 24.6 133.8 24.4 134.1 24.2C134.3 24 134.5 23.7 134.7 23.3L137.3 23.6C137.1 24.3 136.8 24.9 136.3 25.4C135.8 25.9 135.2 26.3 134.5 26.6C133.8 26.9 132.9 27 132 27C130.8 27 129.8 26.7 128.9 26.2C128 25.7 127.4 25 126.9 24.1C126.4 23.2 126.2 22.1 126.2 20.8C126.2 19.6 126.4 18.5 126.9 17.5C127.4 16.6 128 15.8 128.9 15.3C129.8 14.8 130.8 14.5 131.9 14.5C132.6 14.5 133.3 14.6 134 14.9C134.7 15.1 135.2 15.5 135.8 16C136.3 16.5 136.7 17.1 137 17.9C137.3 18.7 137.4 19.6 137.4 20.6V21.7ZM142.5 23.1C142.7 23.7 143.1 24.1 143.5 24.5C143.9 24.8 144.5 25 145 25C145.4 25 145.8 24.9 146.1 24.8C146.4 24.6 146.7 24.4 146.9 24.1C147.1 23.8 147.3 23.4 147.4 23H150.1C150 23.9 149.8 24.6 149.3 25.3C148.9 26 148.3 26.5 147.5 26.8C146.8 27.2 145.9 27.3 144.9 27.3C143.7 27.3 142.7 27 141.8 26.5C140.9 26 140.3 25.2 139.8 24.3C139.3 23.4 139.1 22.3 139.1 21.1C139.1 19.9 139.3 18.8 139.8 17.9C140.3 17 140.9 16.2 141.8 15.7C142.7 15.2 143.7 14.9 144.9 14.9C145.9 14.9 146.7 15.1 147.5 15.4C148.3 15.8 148.9 16.3 149.3 16.9C149.8 17.5 150 18.3 150.1 19.2H147.4C147.3 18.6 147 18.1 146.6 17.8C146.2 17.4 145.6 17.2 145 17.2C144.4 17.2 143.9 17.4 143.5 17.7C143.1 18 142.7 18.5 142.5 19C142.3 19.6 142.1 20.3 142.1 21.1C142.1 21.8 142.2 22.5 142.5 23.1ZM159.8 21.5H152.6V19.2H159.8V21.5ZM170.3 27L167 22.5H165.6V27H162.8V15H165.6V19.9H166.6L170.2 15H173.6L169.1 20.9L173.6 27H170.3ZM185.7 27H183V17.3H179.5L179.3 21.2C179.3 22.2 179.1 23.1 179 23.8C178.8 24.5 178.6 25.1 178.3 25.6C178 26.1 177.6 26.4 177.1 26.7C176.6 26.9 176.1 27 175.4 27H174.5V24.7H174.9C175.2 24.7 175.5 24.6 175.7 24.5C175.9 24.4 176.1 24.1 176.2 23.8C176.3 23.5 176.5 23 176.5 22.5C176.6 21.9 176.6 21.2 176.7 20.4L176.9 15.1H185.7V27ZM194.1 28.4C193.9 29 193.6 29.6 193.2 30C192.8 30.5 192.4 30.8 191.8 31C191.3 31.2 190.6 31.4 189.9 31.4C189.5 31.4 189.2 31.4 188.8 31.3C188.5 31.2 188.2 31.2 188 31.1L188.7 28.9C189.1 29 189.5 29.1 189.8 29.1C190.1 29.1 190.4 29 190.7 28.8C190.9 28.6 191.2 28.3 191.3 27.8L191.5 27.1L187.2 15H190.2L193 24H193.1L195.9 14.9H198.9L194.1 28.4ZM211.1 24.4C210.6 25.3 210 26 209.1 26.5C208.2 27 207.2 27.2 206.1 27.2C204.9 27.2 203.9 26.9 203.1 26.4C202.2 25.9 201.6 25.1 201.1 24.1C200.6 23.1 200.4 21.9 200.4 20.4V19.3C200.4 16.5 200.9 14.4 202 13C203.1 11.6 204.6 10.9 206.7 10.9C207.3 10.9 207.9 10.9 208.4 10.9C208.9 10.9 209.3 10.9 209.7 10.8C210.1 10.7 210.4 10.6 210.6 10.4L211.6 12.2C211.3 12.5 210.9 12.7 210.4 12.9C210 13 209.5 13.1 208.9 13.2C208.3 13.2 207.6 13.3 206.8 13.3C205.9 13.3 205.2 13.5 204.6 13.8C204 14.1 203.6 14.6 203.3 15.2C203 15.8 202.8 16.7 202.7 17.7H202.8C203.2 17 203.7 16.4 204.4 16C205.1 15.6 205.9 15.4 206.8 15.4C207.8 15.4 208.7 15.6 209.4 16.1C210.2 16.5 210.8 17.2 211.2 18C211.6 18.8 211.9 19.9 211.9 21.1C211.8 22.4 211.6 23.5 211.1 24.4Z" fill="white"/>
</svg>
