<svg width="32" height="33" viewBox="0 0 32 33" fill="none" xmlns="http://www.w3.org/2000/svg">
<path fill-rule="evenodd" clip-rule="evenodd" d="M20.2461 8.29044C22.563 8.25747 24.7982 9.1462 26.4598 10.7611C27.2525 11.5362 27.8872 12.4578 28.3287 13.4747C28.787 14.5302 29.0155 15.6712 28.9992 16.8218C29.0065 17.9732 28.7784 19.1141 28.3287 20.1741C27.8795 21.1868 27.2458 22.107 26.4598 22.8877C25.663 23.6688 24.7167 24.2811 23.6777 24.6879C22.5921 25.1452 21.4239 25.3734 20.2461 25.3584H13.7315V8.29044H20.2461ZM22.4053 21.721C23.0373 21.4708 23.6067 21.0851 24.0736 20.5912C24.5265 20.0919 24.8843 19.514 25.1295 18.886C25.3881 18.2307 25.5172 17.5315 25.5096 16.8271C25.5187 16.1053 25.3897 15.3886 25.1295 14.7153C24.8959 14.0879 24.5366 13.5148 24.0736 13.0312C23.5979 12.5424 23.0312 12.1515 22.4053 11.8804C21.7184 11.6069 20.9855 11.4671 20.2461 11.4686H17.1894V22.1539H20.2461C20.9886 22.1667 21.7252 22.019 22.4053 21.721Z" fill="white"/>
<path fill-rule="evenodd" clip-rule="evenodd" d="M5.22122 8C4.18856 8 3.17909 8.30622 2.32047 8.87994C1.46184 9.45365 0.792626 10.2691 0.397444 11.2231C0.00226226 12.1772 -0.101135 13.227 0.100327 14.2398C0.301789 15.2527 0.799062 16.183 1.52926 16.9132C2.25946 17.6434 3.1898 18.1407 4.20261 18.3421C5.21543 18.5436 6.26525 18.4402 7.2193 18.045C8.17335 17.6498 8.9888 16.9806 9.56251 16.122C10.1362 15.2634 10.4424 14.2539 10.4424 13.2212C10.4431 12.5354 10.3086 11.8561 10.0464 11.2223C9.78427 10.5885 9.39971 10.0127 8.91473 9.52771C8.42976 9.04274 7.8539 8.65817 7.22012 8.39603C6.58634 8.13389 5.90708 7.99931 5.22122 8ZM5.22122 15.3488C4.79742 15.3436 4.38462 15.2131 4.03476 14.9739C3.68491 14.7347 3.41362 14.3973 3.25503 14.0042C3.09644 13.6112 3.05764 13.18 3.1435 12.765C3.22937 12.3499 3.43606 11.9695 3.73758 11.6717C4.0391 11.3738 4.42198 11.1718 4.83805 11.091C5.25411 11.0102 5.68478 11.0543 6.07586 11.2176C6.46695 11.381 6.80098 11.6564 7.03593 12.0092C7.27088 12.3619 7.39626 12.7763 7.39629 13.2001C7.39631 13.4841 7.34004 13.7652 7.23074 14.0273C7.12144 14.2894 6.96128 14.5272 6.75951 14.727C6.55775 14.9268 6.31838 15.0846 6.05525 15.1913C5.79212 15.2981 5.51044 15.3516 5.2265 15.3488H5.22122Z" fill="white"/>
</svg>
