<svg width="186" height="34" viewBox="0 0 186 34" fill="none" xmlns="http://www.w3.org/2000/svg">
<path fill-rule="evenodd" clip-rule="evenodd" d="M38.8498 0.561492C43.2385 0.499044 47.4722 2.18248 50.6198 5.24149C52.1212 6.70968 53.3234 8.45528 54.1598 10.3815C55.0279 12.3809 55.4608 14.542 55.4298 16.7215C55.4437 18.9026 55.0115 21.0635 54.1598 23.0715C53.3089 24.9896 52.1085 26.7326 50.6198 28.2115C49.1104 29.6911 47.3179 30.8509 45.3498 31.6215C43.2936 32.4876 41.0807 32.92 38.8498 32.8915H26.5098V0.561492H38.8498ZM42.9398 26.0015C44.1368 25.5276 45.2154 24.7971 46.0998 23.8615C46.9576 22.9157 47.6354 21.821 48.0998 20.6315C48.5896 19.3903 48.8342 18.0658 48.8198 16.7315C48.837 15.3644 48.5926 14.0067 48.0998 12.7315C47.6573 11.543 46.9767 10.4575 46.0998 9.54149C45.1988 8.6156 44.1253 7.87501 42.9398 7.36149C41.6385 6.84349 40.2503 6.57874 38.8498 6.58149H33.0598V26.8215H38.8498C40.2562 26.8458 41.6514 26.5661 42.9398 26.0015Z" fill="white"/>
<path d="M100.76 0.561523V32.8715H94.1602V0.561523H100.76Z" fill="white"/>
<path d="M131.51 20.2115C130.51 23.9215 127.86 27.0815 122.6 27.0815C115.71 27.0815 113.51 21.7215 113.51 16.7215C113.51 11.7215 115.72 6.37146 122.58 6.37146C127.84 6.37146 130.51 9.50146 131.49 13.2415H138.25C136.92 5.30146 131.06 0.00146484 122.84 0.00146484C113.47 0.00146484 106.64 6.86146 106.64 16.7215C106.64 26.5815 113.44 33.4515 122.84 33.4515C131.06 33.4515 136.92 28.1815 138.25 20.2415H131.51V20.2115Z" fill="white"/>
<path d="M185.51 0.561523V32.8715H178.91V0.561523H185.51Z" fill="white"/>
<path d="M150.41 0.561523V13.7215H164.91V0.561523H171.51V32.8715H164.91V19.4615H150.41V32.8715H143.81V0.561523H150.41Z" fill="white"/>
<path fill-rule="evenodd" clip-rule="evenodd" d="M10.39 0.0114797C8.43395 0.0114797 6.52182 0.591518 4.89541 1.67825C3.26901 2.76497 2.00139 4.30958 1.25284 6.11674C0.504285 7.9239 0.30843 9.91245 0.690038 11.8309C1.07165 13.7494 2.01358 15.5116 3.39672 16.8948C4.77986 18.2779 6.54209 19.2198 8.46056 19.6014C10.379 19.9831 12.3676 19.7872 14.1747 19.0386C15.9819 18.2901 17.5265 17.0225 18.6132 15.3961C19.7 13.7697 20.28 11.8575 20.28 9.90148C20.2813 8.60234 20.0264 7.31569 19.5299 6.11518C19.0333 4.91468 18.3049 3.82389 17.3862 2.90526C16.4676 1.98663 15.3768 1.25818 14.1763 0.761632C12.9758 0.265079 11.6891 0.0101641 10.39 0.0114797ZM10.39 13.9315C9.58724 13.9216 8.80532 13.6746 8.14262 13.2214C7.47992 12.7682 6.96605 12.1292 6.66565 11.3847C6.36526 10.6402 6.29176 9.82344 6.4544 9.03726C6.61704 8.25107 7.00856 7.53055 7.5797 6.96635C8.15084 6.40214 8.87609 6.01944 9.6642 5.86641C10.4523 5.71338 11.2681 5.79685 12.0089 6.10631C12.7496 6.41577 13.3824 6.93741 13.8274 7.60559C14.2725 8.27377 14.5099 9.05865 14.51 9.86148C14.51 10.3993 14.4034 10.9319 14.1964 11.4283C13.9894 11.9247 13.686 12.3752 13.3038 12.7536C12.9216 13.1321 12.4682 13.4311 11.9698 13.6332C11.4714 13.8354 10.9378 13.9368 10.4 13.9315H10.39Z" fill="white"/>
<path fill-rule="evenodd" clip-rule="evenodd" d="M82.0598 32.8715H89.0598L78.0598 0.561523H67.9198L56.7998 32.8715H63.7998L65.9698 26.2315H79.8798L82.0598 32.8715ZM67.8498 20.5715L72.9598 5.11152L78.0298 20.5715H67.8498Z" fill="white"/>
</svg>
