<svg width="121" height="23" viewBox="0 0 121 23" fill="none" xmlns="http://www.w3.org/2000/svg">
<path d="M3.78368 1.52182C2.69373 2.0201 1.78249 2.83984 1.17239 3.8709C0.562283 4.90196 0.28255 6.09494 0.370773 7.28955C0.317035 8.13721 0.447384 8.98647 0.75288 9.77905C1.05838 10.5716 1.53179 11.2888 2.14065 11.8814C2.67068 12.4506 3.31324 12.9037 4.02762 13.2118C4.742 13.5199 5.51263 13.6763 6.29067 13.6712C7.2193 13.8088 8.16758 13.7134 9.05016 13.3936C9.93274 13.0739 10.7219 12.5398 11.3466 11.8394C11.9778 11.2686 12.4737 10.5643 12.798 9.77768C13.1223 8.99109 13.2669 8.14209 13.2214 7.29255C13.2519 6.49664 13.1222 5.70272 12.8399 4.95785C12.5577 4.21298 12.1287 3.53234 11.5783 2.95627C11.0081 2.24377 10.2723 1.68121 9.43509 1.31745C8.59785 0.953697 7.68439 0.799748 6.77409 0.868987C5.7337 0.771968 4.68883 1.00007 3.78368 1.52182ZM8.64984 5.71435C8.97235 6.08725 9.17011 6.55161 9.21542 7.04242C9.26073 7.53323 9.15133 8.02591 8.90253 8.45149C8.71897 8.85359 8.41684 9.19002 8.03661 9.41571C7.65637 9.6414 7.21621 9.74556 6.77509 9.71424C6.38596 9.72138 6.00083 9.63478 5.65226 9.46176C5.30369 9.28873 5.00193 9.03436 4.77249 8.72017C4.54306 8.40598 4.39269 8.0412 4.3341 7.65666C4.27551 7.27212 4.31043 6.87914 4.43589 6.51094C4.57065 6.09372 4.81531 5.72046 5.14421 5.43035C5.4731 5.14023 5.87408 4.94397 6.30505 4.86218C6.73602 4.78039 7.18107 4.81608 7.59348 4.9655C8.00589 5.11492 8.37043 5.37255 8.64884 5.71136L8.64984 5.71435Z" fill="#1A1A1A"/>
<path d="M76.1611 1.26887C74.5434 1.75748 73.0919 2.68246 71.9661 3.94211C70.632 5.33501 69.7256 7.08103 69.3543 8.97316C68.8785 10.8733 68.8977 12.8636 69.4102 14.7542C69.9227 16.6448 70.9113 18.3726 72.2818 19.7729C74.579 21.983 76.4767 22.6358 80.1813 22.5101C82.3926 22.4262 82.7722 22.3623 84.0576 21.7734C85.7934 20.8937 87.2727 19.5814 88.3525 17.9632C88.9814 16.7881 89.429 15.5247 89.6799 14.2158C89.6799 13.9842 89.2164 13.9164 87.4256 13.9164H85.1503L84.7508 14.9056C83.8239 17.1586 82.1389 18.2107 79.4641 18.2107C78.7545 18.2897 78.0361 18.2013 77.3667 17.9527C76.6974 17.7042 76.0956 17.3022 75.6098 16.7793C74.5973 15.8026 73.9693 14.4952 73.8399 13.0948C73.2716 9.81066 74.539 6.88487 77.042 5.5792C78.6219 5.06991 80.3198 5.05528 81.9082 5.53727C83.1391 6.09332 84.1164 7.09074 84.6469 8.3323L85.1523 9.49023H87.4276C89.9975 9.49023 89.8916 9.59505 89.2813 7.61657C88.8194 6.01463 87.9226 4.57182 86.6905 3.448C84.6469 1.53241 82.7722 0.858604 79.4651 0.879567C78.3506 0.846964 77.2374 0.978132 76.1611 1.26887Z" fill="#1A1A1A"/>
<path d="M17.0119 11.7106V22.3836L22.2357 22.2997C26.975 22.2159 27.5653 22.173 28.8078 21.7317C30.9309 21.0611 32.7809 19.7237 34.0826 17.9182C35.3844 16.1128 36.0684 13.9357 36.0331 11.7106C36.0586 9.50256 35.3833 7.34326 34.1042 5.54277C32.825 3.74229 31.0079 2.39327 28.9136 1.68944C27.776 1.26819 27.1438 1.2053 22.3415 1.12145L17.0119 1.0376V11.7106ZM27.3126 5.62942C28.1789 5.95181 28.9667 6.45447 29.624 7.10411C30.2812 7.75375 30.7929 8.53555 31.125 9.39771C31.6733 10.8816 31.6685 12.5132 31.1114 13.9939C30.5544 15.4745 29.4824 16.7051 28.0916 17.4603C27.1228 17.9654 26.7432 18.0283 24.3421 18.0922L21.6454 18.1761V5.29002H23.9206C25.0611 5.25862 26.201 5.37268 27.3126 5.62942Z" fill="#1A1A1A"/>
<path d="M43.7849 1.54205C42.879 4.06855 36.8123 21.9208 36.8123 22.1054C36.8123 22.2741 37.4445 22.337 39.1714 22.2951L41.5066 22.2412L42.2438 20.073L42.9599 17.9259H51.6804L52.3966 20.1359L53.1127 22.346H55.4929C56.2872 22.3711 57.0824 22.3431 57.873 22.2621C57.873 22.1573 51.0482 2.03118 50.8165 1.44123C50.6896 1.12579 50.3111 1.08286 47.3207 1.08286C44.0376 1.07887 43.9527 1.07887 43.7849 1.54205ZM48.9877 9.64661L50.4619 14.1306H47.2997C44.8566 14.1306 44.1615 14.0677 44.2454 13.8571L45.7835 9.24633C46.1932 7.80172 46.7217 6.39342 47.3636 5.03582C47.4495 5.12067 48.1656 7.20496 48.9877 9.64661Z" fill="#1A1A1A"/>
<path d="M61.0361 11.7113V22.3424H65.4597V1.08026H61.0361V11.7113Z" fill="#1A1A1A"/>
<path d="M93.0535 11.7113V22.3424H97.6879V13.5001H106.746V22.3424H111.38V1.08026H106.746V9.71189H97.6879V1.08026H93.0535V11.7113Z" fill="#1A1A1A"/>
<path d="M115.803 11.7113V22.3424H120.227V1.08026H115.803V11.7113Z" fill="#1A1A1A"/>
</svg>
