<svg width="32" height="32" viewBox="0 0 32 32" fill="none" xmlns="http://www.w3.org/2000/svg">
<path d="M24.9386 24.3946C25.764 25.22 25.764 26.5573 24.9386 27.3813C24.1133 28.2066 22.776 28.2066 21.952 27.3813C21.1266 26.556 21.1266 25.2186 21.952 24.3946C22.7773 23.5693 24.1146 23.5693 24.9386 24.3946" stroke="white" stroke-width="1.5" stroke-linecap="round" stroke-linejoin="round"/>
<path d="M10.272 24.3946C11.0973 25.22 11.0973 26.5573 10.272 27.3813C9.44664 28.2066 8.10931 28.2066 7.28531 27.3813C6.46131 26.556 6.45998 25.2186 7.28531 24.3946C8.11064 23.5706 9.44664 23.5693 10.272 24.3946" stroke="white" stroke-width="1.5" stroke-linecap="round" stroke-linejoin="round"/>
<path d="M13.3333 5.33325H18.6667C19.4027 5.33325 20 5.93059 20 6.66659V19.9999H2.66666" stroke="white" stroke-width="1.5" stroke-linecap="round" stroke-linejoin="round"/>
<path d="M6.66666 25.8879H3.99999C3.26399 25.8879 2.66666 25.2906 2.66666 24.5546V17.3333" stroke="white" stroke-width="1.5" stroke-linecap="round" stroke-linejoin="round"/>
<path d="M20 9.33325H25.764C26.3093 9.33325 26.8 9.66525 27.0013 10.1719L29.1427 15.5239C29.268 15.8386 29.3333 16.1746 29.3333 16.5133V24.4439C29.3333 25.1799 28.736 25.7773 28 25.7773H25.5587" stroke="white" stroke-width="1.5" stroke-linecap="round" stroke-linejoin="round"/>
<path d="M21.3333 25.8934H10.8933" stroke="white" stroke-width="1.5" stroke-linecap="round" stroke-linejoin="round"/>
<path d="M29.3333 18.6666H24V13.3333H28.2667" stroke="white" stroke-width="1.5" stroke-linecap="round" stroke-linejoin="round"/>
<path d="M2.66666 5.33329H9.33332" stroke="white" stroke-width="1.5" stroke-linecap="round" stroke-linejoin="round"/>
<path d="M2.66666 9.33329H6.66666" stroke="white" stroke-width="1.5" stroke-linecap="round" stroke-linejoin="round"/>
<path d="M3.99999 13.3333H2.66666" stroke="white" stroke-width="1.5" stroke-linecap="round" stroke-linejoin="round"/>
</svg>
