<svg width="32" height="32" viewBox="0 0 32 32" fill="none" xmlns="http://www.w3.org/2000/svg">
<path d="M16 22.7728V28" stroke="white" stroke-width="1.5" stroke-linecap="round" stroke-linejoin="round"/>
<path d="M4 28V26.038C4 24.1313 5.34584 22.4897 7.21553 22.1157L11.0102 21.3568C11.3238 21.2941 11.6496 21.3585 11.9157 21.5359V21.5359C14.389 23.1848 17.6111 23.1848 20.0844 21.5359V21.5359C20.3505 21.3585 20.6763 21.2941 20.9899 21.3568L24.7846 22.1157C26.6542 22.4897 28 24.1313 28 26.038V28" stroke="white" stroke-width="1.5" stroke-linecap="round" stroke-linejoin="round"/>
<path d="M21.3333 9.8645V13.3334C21.3333 16.2789 18.9455 18.6667 16 18.6667V18.6667C13.0545 18.6667 10.6667 16.2789 10.6667 13.3334V9.8645" stroke="white" stroke-width="1.5" stroke-linecap="round" stroke-linejoin="round"/>
<path d="M18.8017 17.8739L19.7671 21.7359" stroke="white" stroke-width="1.5" stroke-linecap="round" stroke-linejoin="round"/>
<path d="M13.2016 17.8739L12.2362 21.7357" stroke="white" stroke-width="1.5" stroke-linecap="round" stroke-linejoin="round"/>
<path fill-rule="evenodd" clip-rule="evenodd" d="M8.12915 8.6082L14.0685 11.5485C15.2858 12.1504 16.7142 12.1504 17.9315 11.5485L23.8709 8.6082C24.3579 8.3701 24.6667 7.87537 24.6667 7.33329C24.6667 6.79121 24.3579 6.29648 23.8709 6.05838L17.9315 3.11808C16.7142 2.51614 15.2858 2.51614 14.0685 3.11808L8.12915 6.05838C7.64216 6.29648 7.33334 6.79121 7.33334 7.33329C7.33334 7.87537 7.64216 8.3701 8.12915 8.6082Z" stroke="white" stroke-width="1.5" stroke-linecap="round" stroke-linejoin="round"/>
<path d="M24.6667 7.37939V10.8461" stroke="white" stroke-width="1.5" stroke-linecap="round" stroke-linejoin="round"/>
</svg>
