<svg width="33" height="32" viewBox="0 0 33 32" fill="none" xmlns="http://www.w3.org/2000/svg">
<path d="M3.84736 18.026C3.84736 11.5681 9.23832 6.31472 15.8638 6.31472C17.864 6.31173 19.8342 6.80692 21.6 7.75651C23.3657 8.70609 24.8726 10.0808 25.9873 11.7589C24.3601 7.1613 19.8553 4.00024 14.7849 4.00024C8.25309 4.00024 2.94011 9.14791 2.94011 15.476C2.94817 17.2078 3.35824 18.9135 4.13736 20.4561C3.9538 19.6592 3.85682 18.8442 3.84736 18.026ZM28.0036 12.8788H25.8407C25.8117 12.8758 25.7825 12.8796 25.7552 12.89C25.7279 12.9003 25.7033 12.9169 25.6834 12.9384C25.6635 12.9599 25.6488 12.9857 25.6404 13.0139C25.632 13.0421 25.6301 13.0719 25.635 13.1009C25.7124 13.6679 25.7459 14.2401 25.7349 14.8123C25.7349 16.9506 25.4798 20.0249 23.1566 22.9428L22.992 23.1487C22.992 23.1487 21.5988 13.3028 21.5698 13.108C21.5698 13.108 21.5616 12.8788 21.3739 12.8788H19.1957C18.9899 12.8788 19.0029 13.0989 19.0029 13.0989C18.9523 14.2374 18.3241 23.7174 11.4784 25.2482C13.1596 25.3588 14.831 24.9165 16.2427 23.9874C17.1436 23.4501 17.9269 22.7332 18.545 21.8804C19.163 21.0276 19.603 20.0566 19.838 19.0267C19.838 19.0267 20.6743 24.3125 20.7841 25.5273L20.7911 25.6065L20.7237 25.6422C19.0925 26.5202 17.2988 27.0467 15.456 27.1886C13.6132 27.3304 11.7613 27.0845 10.0173 26.4664C8.27327 25.8483 6.67513 24.8714 5.32383 23.5975C3.97252 22.3235 2.89744 20.7802 2.1665 19.0651C2.7821 21.9068 4.34091 24.4504 6.58424 26.2737C8.82756 28.097 11.6205 29.0905 14.4996 29.0891C21.4801 29.0891 25.6295 23.1856 26.3463 18.9918C26.3463 18.9918 27.2868 25.1064 27.3107 25.306H30.1665C30.1242 25.0431 28.2329 13.2922 28.2015 13.1005C28.2015 13.1005 28.1913 12.8792 28.0056 12.8792L28.0036 12.8788Z" fill="white"/>
</svg>
