<svg width="91" height="37" viewBox="0 0 91 37" fill="none" xmlns="http://www.w3.org/2000/svg">
<path d="M59.0739 27.4598C58.7324 27.737 58.3505 27.9591 57.9417 28.118C57.3924 28.3309 56.8076 28.4349 56.2194 28.4241C55.7544 28.4438 55.2907 28.3603 54.861 28.1795C54.4312 27.9987 54.0459 27.7251 53.7321 27.3777C53.0715 26.4897 52.7509 25.3903 52.8295 24.2822C52.8295 22.9447 53.1177 21.9448 53.6821 21.3171C54.0245 20.9766 54.4348 20.7139 54.8857 20.5464C55.3366 20.379 55.8176 20.3106 56.2967 20.3459C56.8796 20.3399 57.459 20.4371 58.0087 20.6331C58.3973 20.7562 58.7576 20.9567 59.0682 21.2229C59.183 21.3413 59.2471 21.5005 59.2467 21.6663V27.013C59.2476 27.1779 59.1867 27.3369 59.0762 27.4581L59.0739 27.4598ZM62.0915 13.0005H59.5104C59.2512 13.0005 59.2473 13.3038 59.2473 13.3038V18.6563L58.8784 18.4599C58.4872 18.2499 58.067 18.1005 57.6319 18.0165C57.1238 17.9264 56.6085 17.8839 56.0927 17.8896C54.292 17.8069 52.5317 18.4455 51.1942 19.6665C49.9944 20.8272 49.3651 22.538 49.3754 24.6159C49.3246 26.292 49.8667 27.9315 50.9044 29.2402C51.9064 30.4462 53.4019 31.0584 55.3464 31.0584C58.1378 31.0584 59.2427 29.3568 59.2427 29.3568L59.2501 31.0067H62.3678V27.9193C62.3678 24.4763 62.3678 13.3153 62.3678 13.3153C62.3678 13.3153 62.3808 13.0017 62.0944 13.0017L62.0915 13.0005ZM46.6107 13.0017H44.0848C44.0386 12.999 43.9924 13.0072 43.9499 13.0256C43.9074 13.0441 43.8697 13.0723 43.8399 13.108C43.81 13.1438 43.7888 13.186 43.7779 13.2315C43.7671 13.2769 43.7668 13.3243 43.7772 13.3698C43.7772 13.7718 43.7772 15.7084 43.7772 16.1104H46.8921V13.3285C46.8986 13.287 46.8959 13.2445 46.8842 13.2042C46.8724 13.1638 46.8519 13.1266 46.8242 13.0953C46.7964 13.064 46.762 13.0394 46.7236 13.0232C46.6852 13.007 46.6437 12.9996 46.6022 13.0017H46.6107ZM87.895 27.9767C87.9053 28.0646 87.8887 28.1535 87.8473 28.2315C87.8059 28.3095 87.7418 28.3727 87.6636 28.4126C86.7246 28.84 85.6932 29.0179 84.667 28.9295C84.203 28.924 83.7529 28.7684 83.3827 28.4857C83.0126 28.2029 82.7418 27.8078 82.61 27.3582C82.5748 27.1928 82.269 25.2826 84.0935 24.6825C85.2489 24.3947 86.4595 24.4259 87.5988 24.7727C87.8341 24.8376 87.8944 24.9754 87.8944 25.2574L87.895 27.9767ZM85.5833 17.8505C81.924 17.8505 80.6354 20.0903 80.2284 21.1677L80.0863 21.5565L81.3038 21.9764C81.3038 21.9764 82.0911 19.7027 85.1928 19.8331C88.3281 19.9617 87.9609 22.5547 87.9359 22.9688C86.0199 22.4187 83.979 22.5119 82.1201 23.2347C80.0983 24.1691 79.7862 26.0488 79.8493 27.4271C79.9431 29.4653 81.725 30.8993 84.0424 31.0297C86.1227 31.148 87.0594 30.688 87.9194 29.8174L87.8961 31.0044H90.642V22.0453C90.6988 20.5004 89.6189 17.8529 85.5833 17.8529V17.8505ZM68.1699 23.1715C68.025 23.1669 68.0119 23.0239 68.0148 22.9527C68.1197 22.2453 68.4427 21.5894 68.9378 21.0781C69.2617 20.7618 69.6445 20.5135 70.0641 20.3478C70.4836 20.1821 70.9316 20.1022 71.3819 20.1128C72.1728 20.0893 72.9441 20.3638 73.5458 20.8829C74.0917 21.3911 74.4611 22.0635 74.5991 22.8005C74.628 22.8935 74.6798 23.1612 74.4632 23.1612L68.1699 23.1715ZM75.9211 19.8451C75.3627 19.1999 74.6681 18.6894 73.8885 18.3515C73.1089 18.0135 72.2642 17.8567 71.4166 17.8925C70.5444 17.8673 69.6758 18.0168 68.861 18.3322C68.0462 18.6476 67.3011 19.1227 66.6688 19.7303C66.0423 20.3534 65.5518 21.1022 65.2287 21.9284C64.9057 22.7546 64.7573 23.6399 64.7931 24.5274C64.7545 25.4 64.8982 26.271 65.2148 27.0838C65.5314 27.8966 66.0138 28.6329 66.6307 29.2448C67.8596 30.4129 69.6051 31.0039 71.8128 31.0039C76.0894 31.0039 77.0181 28.0267 77.3694 27.0411L76.2633 26.6805C75.2789 28.4976 73.0678 28.6067 71.7775 28.5223C70.9061 28.4721 70.0665 28.1734 69.3562 27.6608C68.9949 27.3877 68.691 27.0448 68.462 26.6521C68.233 26.2593 68.0835 25.8244 68.0221 25.3728L67.9619 24.9708H77.5843C77.549 22.8183 76.9977 21.0902 75.9206 19.844L75.9211 19.8451ZM3.27738 20.4476C3.27738 11.0812 11.0962 3.46193 20.7055 3.46193C23.6066 3.45759 26.4641 4.1758 29.0251 5.55304C31.5861 6.93029 33.7716 8.92408 35.3883 11.358C33.0283 4.68978 26.4946 0.105103 19.1407 0.105103C9.66729 0.105103 1.96155 7.57108 1.96155 16.7491C1.97324 19.2608 2.56799 21.7348 3.698 23.9721C3.43176 22.8163 3.29054 21.6347 3.27682 20.4481L3.27738 20.4476ZM38.3127 12.9822H35.1757C35.1337 12.9779 35.0912 12.9834 35.0516 12.9984C35.0121 13.0134 34.9764 13.0374 34.9476 13.0686C34.9187 13.0998 34.8973 13.1373 34.8851 13.1782C34.873 13.2191 34.8703 13.2623 34.8773 13.3044C34.9897 14.1267 35.0381 14.9566 35.0223 15.7865C35.0223 18.8877 34.6522 23.3467 31.2828 27.5787L31.0441 27.8774C31.0441 27.8774 29.0234 13.5972 28.9814 13.3147C28.9814 13.3147 28.9694 12.9822 28.6972 12.9822H25.538C25.2396 12.9822 25.2584 13.3015 25.2584 13.3015C25.185 14.9526 24.2739 28.7021 14.3452 30.9223C16.7835 31.0827 19.2077 30.4412 21.2552 29.0937C22.5617 28.3144 23.6978 27.2746 24.5942 26.0378C25.4906 24.8009 26.1287 23.3927 26.4696 21.8988C26.4696 21.8988 27.6826 29.5652 27.8417 31.3272L27.852 31.4421L27.7542 31.4938C25.3884 32.7671 22.7869 33.5308 20.1141 33.7365C17.4414 33.9423 14.7554 33.5857 12.226 32.6892C9.69656 31.7927 7.37868 30.3759 5.4188 28.5282C3.45892 26.6805 1.89966 24.4421 0.839539 21.9545C1.73238 26.076 3.99322 29.7652 7.24685 32.4097C10.5005 35.0541 14.5513 36.495 18.7269 36.4931C28.8512 36.4931 34.8694 27.9308 35.909 21.8483C35.909 21.8483 37.2731 30.7167 37.3078 31.0062H41.4497C41.3883 30.6248 38.6452 13.5817 38.5997 13.3038C38.5997 13.3038 38.585 12.9828 38.3155 12.9828L38.3127 12.9822ZM43.7829 17.9511V31.0056L46.8364 31.001V17.9505L43.7829 17.9511Z" fill="white"/>
</svg>
