<svg width="200" height="118" viewBox="0 0 200 118" fill="none" xmlns="http://www.w3.org/2000/svg">
<rect width="200" height="118" fill="#32A3FD"/>
<g clip-path="url(#clip0_9_417)">
<path d="M116.342 69.3548C115.915 69.7013 115.438 69.9788 114.927 70.1775C114.24 70.4437 113.509 70.5736 112.774 70.5601C112.193 70.5847 111.613 70.4804 111.076 70.2544C110.539 70.0284 110.057 69.6863 109.665 69.2521C108.839 68.1421 108.438 66.7679 108.537 65.3828C108.537 63.7108 108.897 62.461 109.603 61.6763C110.031 61.2508 110.543 60.9224 111.107 60.713C111.671 60.5037 112.272 60.4183 112.871 60.4624C113.599 60.4549 114.324 60.5764 115.011 60.8213C115.497 60.9752 115.947 61.2259 116.335 61.5586C116.479 61.7066 116.559 61.9057 116.558 62.1128V68.7963C116.559 69.0023 116.483 69.2011 116.345 69.3526L116.342 69.3548ZM120.114 51.2807H116.888C116.564 51.2807 116.559 51.6597 116.559 51.6597V58.3504L116.098 58.1049C115.609 57.8424 115.084 57.6556 114.54 57.5507C113.905 57.438 113.261 57.3848 112.616 57.392C110.365 57.2886 108.165 58.0868 106.493 59.6132C104.993 61.064 104.206 63.2026 104.219 65.7999C104.156 67.895 104.833 69.9444 106.13 71.5802C107.383 73.0878 109.252 73.8531 111.683 73.8531C115.172 73.8531 116.553 71.726 116.553 71.726L116.563 73.7884H120.46V69.9291C120.46 65.6254 120.46 51.6741 120.46 51.6741C120.46 51.6741 120.476 51.2821 120.118 51.2821L120.114 51.2807ZM100.763 51.2821H97.6058C97.5481 51.2787 97.4904 51.289 97.4372 51.312C97.3841 51.3351 97.337 51.3704 97.2997 51.4151C97.2624 51.4597 97.2359 51.5125 97.2223 51.5693C97.2087 51.6261 97.2084 51.6853 97.2215 51.7423C97.2215 52.2448 97.2215 54.6655 97.2215 55.168H101.115V51.6906C101.123 51.6387 101.12 51.5856 101.105 51.5352C101.09 51.4848 101.065 51.4383 101.03 51.3992C100.995 51.36 100.952 51.3292 100.904 51.309C100.856 51.2887 100.805 51.2795 100.753 51.2821H100.763ZM152.369 70.0009C152.382 70.1107 152.361 70.2219 152.309 70.3194C152.257 70.4169 152.177 70.4959 152.079 70.5457C150.906 71.08 149.616 71.3024 148.334 71.1919C147.754 71.185 147.191 70.9906 146.728 70.6371C146.266 70.2836 145.927 69.7897 145.762 69.2277C145.718 69.021 145.336 66.6333 147.617 65.8831C149.061 65.5234 150.574 65.5623 151.998 65.9958C152.293 66.077 152.368 66.2493 152.368 66.6017L152.369 70.0009ZM149.479 57.3432C144.905 57.3432 143.294 60.1429 142.785 61.4897L142.608 61.9757L144.13 62.5005C144.13 62.5005 145.114 59.6584 148.991 59.8213C152.91 59.9821 152.451 63.2234 152.42 63.741C150.025 63.0533 147.474 63.1699 145.15 64.0733C142.623 65.2413 142.233 67.591 142.312 69.3139C142.429 71.8617 144.656 73.6542 147.553 73.8171C150.153 73.965 151.324 73.39 152.399 72.3017L152.37 73.7855H155.802V62.5866C155.873 60.6555 154.524 57.3461 149.479 57.3461V57.3432ZM127.712 63.9944C127.531 63.9886 127.515 63.8099 127.518 63.7209C127.65 62.8367 128.053 62.0167 128.672 61.3777C129.077 60.9822 129.556 60.6719 130.08 60.4648C130.604 60.2576 131.164 60.1578 131.727 60.1709C132.716 60.1416 133.68 60.4847 134.432 61.1336C135.115 61.7689 135.576 62.6094 135.749 63.5306C135.785 63.6469 135.85 63.9814 135.579 63.9814L127.712 63.9944ZM137.401 59.8364C136.703 59.0298 135.835 58.3918 134.861 57.9694C133.886 57.5469 132.83 57.3508 131.771 57.3956C130.68 57.3642 129.595 57.551 128.576 57.9452C127.558 58.3395 126.626 58.9334 125.836 59.6928C125.053 60.4718 124.44 61.4078 124.036 62.4405C123.632 63.4732 123.447 64.5798 123.491 65.6893C123.443 66.78 123.623 67.8688 124.018 68.8848C124.414 69.9007 125.017 70.8211 125.788 71.586C127.324 73.0461 129.506 73.7848 132.266 73.7848C137.612 73.7848 138.773 70.0633 139.212 68.8314L137.829 68.3806C136.598 70.652 133.835 70.7884 132.222 70.6829C131.132 70.6201 130.083 70.2468 129.195 69.6061C128.744 69.2647 128.364 68.8361 128.077 68.3451C127.791 67.8541 127.604 67.3106 127.528 66.746L127.452 66.2435H139.48C139.436 63.5529 138.747 61.3928 137.401 59.835L137.401 59.8364ZM46.5966 60.5895C46.5966 48.8815 56.3702 39.3574 68.3818 39.3574C72.0082 39.352 75.58 40.2497 78.7813 41.9713C81.9825 43.6929 84.7144 46.1851 86.7353 49.2275C83.7853 40.8922 75.6182 35.1614 66.4258 35.1614C54.584 35.1614 44.9518 44.4938 44.9518 55.9663C44.9664 59.106 45.7099 62.1985 47.1224 64.9951C46.7896 63.5504 46.6138 62.0727 46.5966 60.5895ZM90.3908 51.2577H86.4696C86.417 51.2523 86.3639 51.2593 86.3144 51.278C86.265 51.2967 86.2205 51.3268 86.1844 51.3658C86.1483 51.4047 86.1216 51.4516 86.1063 51.5027C86.0911 51.5538 86.0877 51.6078 86.0965 51.6605C86.237 52.6883 86.2976 53.7257 86.2777 54.7631C86.2777 58.6397 85.8152 64.2133 81.6034 69.5034L81.305 69.8767C81.305 69.8767 78.7792 52.0266 78.7266 51.6734C78.7266 51.6734 78.7117 51.2577 78.3713 51.2577H74.4224C74.0494 51.2577 74.0729 51.6569 74.0729 51.6569C73.9812 53.7208 72.8423 70.9076 60.4314 73.6829C63.4793 73.8834 66.5095 73.0815 69.0688 71.3972C70.7021 70.423 72.1221 69.1233 73.2427 67.5772C74.3632 66.0311 75.1608 64.2709 75.5869 62.4035C75.5869 62.4035 77.1031 71.9865 77.302 74.189L77.3148 74.3326L77.1926 74.3972C74.2354 75.9889 70.9835 76.9435 67.6426 77.2007C64.3016 77.4579 60.9441 77.0121 57.7824 75.8915C54.6206 74.7709 51.7232 72.9999 49.2734 70.6902C46.8235 68.3806 44.8745 65.5826 43.5493 62.4732C44.6654 67.6251 47.4914 72.2365 51.5585 75.5421C55.6255 78.8477 60.689 80.6487 65.9086 80.6463C78.5639 80.6463 86.0866 69.9434 87.3861 62.3404C87.3861 62.3404 89.0913 73.4259 89.1346 73.7877H94.312C94.2353 73.3111 90.8064 52.0072 90.7496 51.6597C90.7496 51.6597 90.7311 51.2585 90.3943 51.2585L90.3908 51.2577ZM97.2286 57.4689V73.787L101.045 73.7812V57.4681L97.2286 57.4689Z" fill="white"/>
</g>
<defs>
<clipPath id="clip0_9_417">
<rect width="112.258" height="45.4843" fill="white" transform="translate(43.5483 35.1614)"/>
</clipPath>
</defs>
</svg>
