<svg width="24" height="24" viewBox="0 0 24 24" fill="none" xmlns="http://www.w3.org/2000/svg">
<path d="M22.0031 17.0019V14.0006C22.0031 13.171 20.3224 12.5 18.2516 12.5C16.1807 12.5 14.5011 13.1721 14.5 14.0006V20.0031C14.5011 20.8317 16.1796 21.5037 18.2516 21.5037C20.3235 21.5037 22.0021 20.8317 22.0031 20.0031V14.0006" stroke="#6C7684" stroke-width="1.5" stroke-linecap="round" stroke-linejoin="round"/>
<path d="M7.62695 13.8672L11.2845 11.6373V6.98438" stroke="#6C7684" stroke-width="1.5" stroke-linecap="round" stroke-linejoin="round"/>
<path d="M19.7712 8.99886C18.7228 4.40644 14.3109 1.39904 9.65305 2.10169C4.99519 2.80433 1.66682 6.97936 2.01979 11.6767C2.37275 16.374 6.28766 20.0048 10.9982 20.0034" stroke="#6C7684" stroke-width="1.5" stroke-linecap="round" stroke-linejoin="round"/>
<path d="M14.502 14C14.502 14.8286 16.1816 15.5006 18.2535 15.5006C20.3254 15.5006 22.004 14.8286 22.004 14" stroke="#6C7684" stroke-width="1.5" stroke-linecap="round" stroke-linejoin="round"/>
<path d="M14.502 17C14.502 17.8286 16.1816 18.5006 18.2535 18.5006C20.3254 18.5006 22.0051 17.8286 22.0051 17" stroke="#6C7684" stroke-width="1.5" stroke-linecap="round" stroke-linejoin="round"/>
</svg>
