<svg width="32" height="32" viewBox="0 0 32 32" fill="none" xmlns="http://www.w3.org/2000/svg">
<path d="M24.5942 18.5143C25.2039 18.0771 25.7788 17.5932 26.3136 17.067" stroke="white" stroke-width="1.5" stroke-linecap="round" stroke-linejoin="round"/>
<path d="M5.68637 17.067C6.22106 17.5946 6.79592 18.0798 7.40575 18.5183" stroke="white" stroke-width="1.5" stroke-linecap="round" stroke-linejoin="round"/>
<path d="M13.9992 7.15488V4.66184C13.9992 3.55681 14.895 2.66101 16 2.66101V2.66101C17.105 2.66101 18.0008 3.55681 18.0008 4.66184V7.15622" stroke="white" stroke-width="1.5" stroke-linecap="round" stroke-linejoin="round"/>
<circle cx="16" cy="10.6644" r="4.00167" stroke="white" stroke-width="1.5" stroke-linecap="round" stroke-linejoin="round"/>
<path d="M17.2152 14.4846L23.9753 28.0049H26.6711V22.6694L19.8603 9.04905C19.1292 7.58676 17.6348 6.66295 16 6.66272V6.66272C14.3652 6.66295 12.8708 7.58676 12.1397 9.04905L5.32889 22.6694V28.0049H7.99667L14.7568 14.4846" stroke="white" stroke-width="1.5" stroke-linecap="round" stroke-linejoin="round"/>
<path d="M20.3125 20.6792C17.4942 21.5468 14.4796 21.5431 11.6635 20.6686" stroke="white" stroke-width="1.5" stroke-linecap="round" stroke-linejoin="round"/>
<path d="M15.9333 10.6644C15.9333 10.7012 15.9632 10.7311 16 10.7311C16.0368 10.7311 16.0667 10.7012 16.0667 10.6644C16.0667 10.6275 16.0368 10.5977 16 10.5977C15.9632 10.5977 15.9333 10.6275 15.9333 10.6644" stroke="white" stroke-width="1.5" stroke-linecap="round" stroke-linejoin="round"/>
</svg>
