<svg width="32" height="32" fill="none" xmlns="http://www.w3.org/2000/svg"><path clip-rule="evenodd" d="M16 22.488a8.49 8.49 0 00-9.993-1.493c-.912.486-2.012-.113-2.012-1.145V7.722c0-.848.392-1.665 1.083-2.157A8.49 8.49 0 0116 6.481a8.49 8.49 0 0110.922-.916c.69.492 1.083 1.309 1.083 2.157V19.85c0 1.032-1.1 1.632-2.011 1.145A8.49 8.49 0 0016 22.488z" stroke="#fff" stroke-width="1.5" stroke-linecap="round" stroke-linejoin="round"/><path d="M6.007 26.512A8.49 8.49 0 0116 28.005a8.49 8.49 0 019.994-1.493M16 22.488V6.481" stroke="#fff" stroke-width="1.5" stroke-linecap="round" stroke-linejoin="round"/></svg>