<svg width="105" height="24" fill="none" xmlns="http://www.w3.org/2000/svg"><path d="M44.717 11.397s2.12-.723 2.12-3.132c0-2.82-2-4.217-4.746-4.217h-7.204v15.324h7.83c2.41 0 4.771-1.687 4.771-4.265 0-3.06-2.77-3.686-2.77-3.71zm-6.071-4.168h2.795c.867 0 1.445.578 1.445 1.445 0 .675-.53 1.398-1.518 1.398h-2.746V7.229h.024zm2.819 8.938H38.67v-3.011h2.722c1.374 0 2.024.602 2.024 1.493 0 1.109-.819 1.518-1.951 1.518zM55.776 3.663c-4.433 0-7.035 3.541-7.035 8.023 0 4.505 2.602 8.023 7.035 8.023 4.457 0 7.035-3.518 7.035-8.023 0-4.482-2.578-8.023-7.035-8.023zm0 12.384c-2.169 0-3.253-1.952-3.253-4.361 0-2.41 1.084-4.337 3.253-4.337 2.168 0 3.277 1.952 3.277 4.337 0 2.41-1.109 4.36-3.277 4.36zm15.203-6l-.53-.12c-1.301-.265-2.337-.602-2.337-1.542 0-1.012.988-1.422 1.855-1.422 1.277 0 2.41.627 3.132 1.422l2.385-2.361c-1.084-1.229-2.843-2.41-5.59-2.41-3.228 0-5.661 1.808-5.661 4.82 0 2.746 1.975 4.095 4.385 4.601l.53.12c2 .41 2.746.723 2.746 1.687 0 .916-.819 1.518-2.072 1.518-1.493 0-2.843-.65-3.879-1.976l-2.433 2.41c1.35 1.614 3.06 2.867 6.36 2.867 2.868 0 5.927-1.639 5.927-4.988.025-3.493-2.626-4.168-4.818-4.626zm13.372 6c-1.687 0-3.445-1.398-3.445-4.458 0-2.722 1.638-4.24 3.349-4.24 1.349 0 2.144.626 2.77 1.71l3.084-2.047c-1.542-2.337-3.373-3.325-5.903-3.325-4.626 0-7.131 3.59-7.131 7.927 0 4.553 2.77 8.119 7.083 8.119 3.036 0 4.481-1.06 6.048-3.325l-3.108-2.096c-.627 1.012-1.302 1.735-2.747 1.735zm16.046-12.023v5.638h-4.65V4.024h-4.024v15.323h4.024V13.3h4.65v6.047h4.023V4.024h-4.023z" fill="#E20015"/><path d="M11.71.097C5.3.097.097 5.301.097 11.71S5.3 23.323 11.71 23.323s11.613-5.204 11.613-11.613S18.119.097 11.71.097zm0 22.142c-5.807 0-10.529-4.723-10.529-10.529 0-5.807 4.722-10.529 10.529-10.529 5.806 0 10.528 4.723 10.528 10.529S17.516 22.239 11.71 22.239z" fill="#575757"/><path d="M16.504 4.458h-.795v3.975H7.735V4.458h-.82C4.578 6.024 3.012 8.674 3.012 11.71c0 3.036 1.566 5.686 3.903 7.252h.82v-3.975h7.974v3.975h.795c2.361-1.566 3.903-4.216 3.903-7.252 0-3.036-1.541-5.686-3.903-7.252zM6.626 17.396a7.539 7.539 0 01-2.554-5.686c0-2.217.94-4.265 2.554-5.686v11.372zm9.083-3.518H7.735v-4.36h7.974v4.36zm1.085 3.494V6.023a7.588 7.588 0 012.53 5.663c0 2.216-.94 4.264-2.53 5.686z" fill="#575757"/></svg>