<svg width="228" height="42" fill="none" xmlns="http://www.w3.org/2000/svg"><path d="M133.3 17.4c-.4-.2-.9-.4-1.4-.4-.6 0-1.1.1-1.5.4-.4.3-.8.6-1 1.1-.2.4-.3.8-.3 1.3h5.6c0-.5-.1-1-.4-1.4-.2-.4-.6-.8-1-1zm-88.2-.8c-.6-.6-1.3-1.1-2-1.4-.8-.3-1.7-.5-2.6-.5h-3.7v12.9h3.7c.9 0 1.8-.2 2.6-.5s1.5-.8 2-1.4c.5-.6 1-1.3 1.3-2.1.3-.8.5-1.6.5-2.5 0-.9-.1-1.7-.5-2.6-.3-.6-.7-1.3-1.3-1.9zm37.2 1.5c-.4-.3-.9-.4-1.5-.4-.4 0-.8.1-1.2.2-.3.2-.6.4-.9.7-.2.3-.4.7-.6 1.1-.1.5-.1 1-.1 1.6 0 1.1.3 2 .8 2.7.5.7 1.2 1 2.1 1 .6 0 1.1-.1 1.5-.4.4-.3.7-.7 1-1.3.2-.6.3-1.2.3-2 0-.7-.1-1.4-.3-1.9-.3-.6-.7-1-1.1-1.3zm-58.9-3.7c-.5-.2-1-.3-1.5-.2-.5.1-1 .3-1.3.7-.4.4-.6.8-.7 1.3-.1.5-.1 1 .1 1.5s.5.9.9 1.2c.4.3.9.4 1.4.5.3 0 .7-.1 1-.2.3-.1.6-.3.9-.6.3-.3.4-.5.6-.8.1-.3.2-.7.2-1 0-.5-.2-1-.4-1.4-.4-.5-.8-.8-1.2-1zm184.2 3.7c-.4-.3-.9-.4-1.5-.4-.4 0-.8.1-1.2.2-.4.2-.6.4-.9.7-.2.3-.4.7-.6 1.1-.2.4-.2.9-.2 1.5 0 1.1.3 2 .8 2.7.5.7 1.2 1 2.1 1 .6 0 1.1-.1 1.5-.4.4-.3.7-.7 1-1.3.2-.6.3-1.2.3-2 0-.7-.1-1.4-.3-1.9-.2-.5-.6-.9-1-1.2z" fill="#fff"/><path d="M220.8 0H7C3.1 0 0 3.1 0 7v28c0 3.9 3.1 7 7 7h213.8c3.9 0 7-3.1 7-7V7c0-3.9-3.1-7-7-7zM27.6 20.3c-.7 1-1.7 1.8-2.8 2.3-1.2.5-2.4.6-3.6.4-1.2-.2-2.4-.8-3.2-1.7-.9-.9-1.5-2-1.7-3.2-.2-1.2-.1-2.5.4-3.6.5-1.2 1.3-2.1 2.3-2.8 1-.7 2.3-1.1 3.5-1.1.8 0 1.7.2 2.4.5.8.3 1.5.8 2.1 1.4.6.6 1.1 1.3 1.4 2.1.3.8.5 1.6.5 2.4-.3 1.1-.6 2.3-1.3 3.3zm22.7 4.9c-.5 1.2-1.3 2.3-2.3 3.3-1 .9-2.1 1.7-3.4 2.2-1.3.6-2.7.8-4.2.8h-7.9V10.9h7.9c2.8 0 5.5 1 7.5 3 1 .9 1.7 2.1 2.3 3.3.6 1.3.8 2.7.8 4 .1 1.4-.2 2.7-.7 4zM64 31.5h-1.8v-21H64v21zm21.8-7.1c-.5.9-1.1 1.6-2 2.1-.9.5-1.9.7-3 .7-1.2 0-2.2-.3-3-.8-.9-.5-1.5-1.3-2-2.3-.5-1-.7-2.2-.7-3.7v-1.1c0-2.8.5-4.9 1.6-6.3 1.1-1.4 2.6-2.1 4.7-2.1h1.7c.5 0 .9 0 1.3-.1s.7-.2.9-.4l1 1.8c-.4.3-.7.5-1.2.7-.4.1-.9.2-1.5.3-.6 0-1.3.1-2.1.1-.9 0-1.6.2-2.2.5-.6.3-1 .8-1.3 1.4-.3.6-.5 1.5-.6 2.5h.1c.4-.7.9-1.3 1.6-1.7.7-.4 1.5-.6 2.4-.6 1 0 1.9.2 2.6.7.8.4 1.4 1.1 1.8 1.9.4.8.7 1.9.7 3.1-.1 1.3-.3 2.4-.8 3.3zM99.4 27h-2.7v-8.2L91.9 27H89V15h2.7v8.2l4.8-8.2h2.9v12zm11.4-1.4c-.4.5-1 .9-1.7 1.2-.7.3-1.6.4-2.5.4-.9 0-1.8-.1-2.5-.4-.7-.3-1.3-.7-1.7-1.2-.4-.5-.7-1.2-.7-1.9h2.8c0 .4.2.8.6 1 .4.2.9.4 1.5.4s1.1-.1 1.5-.4c.4-.3.6-.7.6-1.2 0-.3-.1-.6-.2-.9-.2-.3-.4-.4-.7-.6-.3-.1-.6-.2-1-.2H105v-2h1.8c.6 0 1-.1 1.3-.4.3-.3.5-.6.5-1s-.2-.8-.5-1.1c-.3-.3-.8-.4-1.3-.4-.6 0-1 .1-1.4.4-.4.3-.6.6-.6 1H102c0-.7.2-1.3.6-1.8.4-.5 1-.9 1.7-1.2.7-.3 1.5-.4 2.4-.4.9 0 1.8.1 2.4.4.6.3 1.2.7 1.6 1.2.4.5.6 1.1.6 1.8s-.2 1.2-.6 1.6c-.4.4-1 .7-1.6.9v.1c.5 0 .9.2 1.3.4s.7.6.9 1c.2.4.3.9.3 1.4-.1.7-.3 1.3-.8 1.9zm13 1.4h-2.7v-4.9h-4.7V27h-2.7V15h2.7v4.8h4.7V15h2.7v12zm13.6-5.3H129c0 .7.1 1.2.4 1.7.3.5.6.9 1.1 1.1.5.3 1 .4 1.6.4.4 0 .8-.1 1.1-.2.3-.1.6-.3.9-.5.2-.2.4-.5.6-.9l2.6.3c-.2.7-.5 1.3-1 1.8s-1.1.9-1.8 1.2c-.7.3-1.6.4-2.5.4-1.2 0-2.2-.3-3.1-.8-.9-.5-1.5-1.2-2-2.1-.5-.9-.7-2-.7-3.3 0-1.2.2-2.3.7-3.3.5-.9 1.1-1.7 2-2.2.9-.5 1.9-.8 3-.8.7 0 1.4.1 2.1.4.7.2 1.2.6 1.8 1.1.5.5.9 1.1 1.2 1.9.3.8.4 1.7.4 2.7v1.1zm5.1 1.4c.2.6.6 1 1 1.4.4.3 1 .5 1.5.5.4 0 .8-.1 1.1-.2.3-.2.6-.4.8-.7.2-.3.4-.7.5-1.1h2.7c-.1.9-.3 1.6-.8 2.3-.4.7-1 1.2-1.8 1.5-.7.4-1.6.5-2.6.5-1.2 0-2.2-.3-3.1-.8-.9-.5-1.5-1.3-2-2.2-.5-.9-.7-2-.7-3.2 0-1.2.2-2.3.7-3.2.5-.9 1.1-1.7 2-2.2.9-.5 1.9-.8 3.1-.8 1 0 1.8.2 2.6.5.8.4 1.4.9 1.8 1.5.5.6.7 1.4.8 2.3h-2.7c-.1-.6-.4-1.1-.8-1.4-.4-.4-1-.6-1.6-.6-.6 0-1.1.2-1.5.5-.4.3-.8.8-1 1.3-.2.6-.4 1.3-.4 2.1 0 .7.1 1.4.4 2zm17.3-1.6h-7.2v-2.3h7.2v2.3zm10.5 5.5l-3.3-4.5h-1.4V27h-2.8V15h2.8v4.9h1l3.6-4.9h3.4l-4.5 5.9 4.5 6.1h-3.3zm15.4 0H183v-9.7h-3.5l-.2 3.9c0 1-.2 1.9-.3 2.6-.2.7-.4 1.3-.7 1.8-.3.5-.7.8-1.2 1.1-.5.2-1 .3-1.7.3h-.9v-2.3h.4c.3 0 .6-.1.8-.2.2-.1.4-.4.5-.7.1-.3.3-.8.3-1.3.1-.6.1-1.3.2-2.1l.2-5.3h8.8V27zm8.4 1.4c-.2.6-.5 1.2-.9 1.6-.4.5-.8.8-1.4 1-.5.2-1.2.4-1.9.4-.4 0-.7 0-1.1-.1-.3-.1-.6-.1-.8-.2l.7-2.2c.4.1.8.2 1.1.2.3 0 .6-.1.9-.3.2-.2.5-.5.6-1l.2-.7-4.3-12.1h3l2.8 9h.1l2.8-9.1h3l-4.8 13.5zm17-4c-.5.9-1.1 1.6-2 2.1-.9.5-1.9.7-3 .7-1.2 0-2.2-.3-3-.8-.9-.5-1.5-1.3-2-2.3-.5-1-.7-2.2-.7-3.7v-1.1c0-2.8.5-4.9 1.6-6.3 1.1-1.4 2.6-2.1 4.7-2.1h1.7c.5 0 .9 0 1.3-.1s.7-.2.9-.4l1 1.8c-.3.3-.7.5-1.2.7-.4.1-.9.2-1.5.3-.6 0-1.3.1-2.1.1-.9 0-1.6.2-2.2.5-.6.3-1 .8-1.3 1.4-.3.6-.5 1.5-.6 2.5h.1c.4-.7.9-1.3 1.6-1.7.7-.4 1.5-.6 2.4-.6 1 0 1.9.2 2.6.7.8.4 1.4 1.1 1.8 1.9.4.8.7 1.9.7 3.1-.1 1.3-.3 2.4-.8 3.3z" fill="#fff"/></svg>