<svg width="206" height="42" fill="none" xmlns="http://www.w3.org/2000/svg"><path d="M197.34 0H8.74a8 8 0 00-8 8v26a8 8 0 008 8h188.6a8 8 0 008-8V8a8 8 0 00-8-8zM27.12 28.6h-7.38V9h13.37v2.84h-9.94v4.75h4.11c4.43 0 7.29 1.46 7.29 5.83s-2.84 6.18-7.45 6.18zm23.62 0h-3.21V18.53L40.62 28.6H37.4V14.07h3.22V24.2l6.91-10.13h3.21V28.6zm8.69.35c-3.18 0-6-1.38-6.53-5.08H56c.29 1.65 1.51 2.7 3.56 2.7s3.13-.81 3.13-2.08c0-1.51-1-2.07-2.86-2.07h-2.38v-2.51h2.22c1.59 0 2.59-.55 2.59-1.81s-.78-2-2.59-2c-1.81 0-3.27.86-3.51 2.67h-3.08c.51-3.43 3.43-5.07 6.64-5.07 3.21 0 5.73 1.26 5.73 4.18a3.13 3.13 0 01-2.11 3.05 3.2 3.2 0 012.57 3.4c-.02 3.22-2.83 4.67-6.48 4.67v-.05zm22.12-.35h-3.21v-6.18h-6.48v6.18h-3.21V14.07h3.21v5.81h6.48v-5.81h3.21V28.6zm16.88-6.35H87.6a4 4 0 003.95 4 3.51 3.51 0 003.56-2h3.16a6.57 6.57 0 01-6.59 4.7c-4.67 0-7.34-3.54-7.34-7.72 0-4.38 3-7.48 7.13-7.48 4.45 0 7.26 3.64 6.96 8.5zm8.83 6.7c-4.22 0-7-3.27-7-7.59s2.78-7.61 7.13-7.61A6.44 6.44 0 01113.9 19h-3.13a3.28 3.28 0 00-3.38-2.62c-2 0-3.81 1.49-3.81 4.92 0 3.43 1.84 4.94 3.73 4.94a3.332 3.332 0 003.56-2.65H114a6.663 6.663 0 01-6.74 5.41v-.05zm17.53-6.18H116v-2.89h8.8l-.01 2.89zm12.77 5.83l-4.78-6.35h-1.51v6.35H128V14.07h3.24v5.65H133l4.19-5.65h3.67l-5.48 7.05 5.86 7.48h-3.68zm18.23 0h-3.21v-12h-4.27l-.22 3.13c-.4 6.08-2 8.86-5.37 8.86h-.59v-2.53h.32c1.19 0 2.3-1.27 2.59-6.78l.27-5.21h10.48V28.6zm10.36 0c-1.38 3.76-2.32 4.75-5.59 4.75h-1.46v-2.48h1.22c1.4 0 2-.11 2.64-2l.16-.35-5.26-14.45h3.51l3.29 10.42L168 14.07h3.29l-5.14 14.53zm13.28.38c-3.83 0-7-2.73-7-8.32v-1.32c.08-5.27 2.54-9.07 7.7-9.86l5.07-.78v2.81l-4.91.81c-2.62.43-4.73 1.7-5.24 5.29a5.497 5.497 0 015-2.67c3.37 0 6.31 2.32 6.31 6.88 0 4.56-3.28 7.18-6.93 7.18v-.02z" fill="url(#paint0_linear_9_377)"/><defs><linearGradient id="paint0_linear_9_377" x1=".73" y1=".06" x2="205.73" y2="42.06" gradientUnits="userSpaceOnUse"><stop stop-color="#4B6CB7"/><stop offset="1" stop-color="#182848"/></linearGradient></defs></svg>