<svg width="32" height="33" fill="none" xmlns="http://www.w3.org/2000/svg"><path fill-rule="evenodd" clip-rule="evenodd" d="M20.246 8.29a8.737 8.737 0 016.214 2.471 8.567 8.567 0 011.869 2.714 8.115 8.115 0 01.67 3.347 8.447 8.447 0 01-.67 3.352 8.925 8.925 0 01-1.87 2.714 8.294 8.294 0 01-2.781 1.8 8.559 8.559 0 01-3.432.67h-6.514V8.29h6.514zm2.16 13.431a4.652 4.652 0 001.668-1.13 5.534 5.534 0 001.436-3.764 5.66 5.66 0 00-.38-2.112 4.915 4.915 0 00-1.056-1.684 5.226 5.226 0 00-1.669-1.15 5.805 5.805 0 00-2.159-.412H17.19v10.685h3.057a5.159 5.159 0 002.16-.433zM5.221 8a5.221 5.221 0 100 10.442A5.221 5.221 0 005.221 8zm0 7.349a2.149 2.149 0 11.005 0h-.005z" fill="#fff"/></svg>