<svg width="121" height="23" fill="none" xmlns="http://www.w3.org/2000/svg"><path d="M3.784 1.522A5.87 5.87 0 00.37 7.29a5.886 5.886 0 001.77 4.591 5.62 5.62 0 004.15 1.79 5.663 5.663 0 005.056-1.832 5.718 5.718 0 001.874-4.546 5.945 5.945 0 00-1.643-4.337A5.607 5.607 0 006.774.87a5.05 5.05 0 00-2.99.653zM8.65 5.714a2.362 2.362 0 01.253 2.737 2.169 2.169 0 01-2.128 1.263 2.425 2.425 0 01-2.34-3.203 2.442 2.442 0 013.158-1.546c.413.15.777.408 1.056.746v.003zm67.511-4.445a9.19 9.19 0 00-4.195 2.673 10.08 10.08 0 00-2.612 5.031 11.458 11.458 0 002.928 10.8c2.297 2.21 4.195 2.863 7.9 2.737 2.21-.084 2.59-.148 3.876-.737a11.309 11.309 0 004.294-3.81 13.214 13.214 0 001.328-3.747c0-.232-.464-.3-2.254-.3H85.15l-.4.99c-.926 2.253-2.611 3.305-5.286 3.305a4.572 4.572 0 01-3.854-1.432 5.87 5.87 0 01-1.77-3.684c-.568-3.284.699-6.21 3.202-7.516a8.149 8.149 0 014.866-.042 5.392 5.392 0 012.739 2.795l.505 1.158h2.276c2.57 0 2.464.105 1.853-1.873a9.028 9.028 0 00-2.59-4.169C84.647 1.532 82.772.858 79.465.88a11.392 11.392 0 00-3.304.389zM17.012 11.71v10.674l5.224-.084c4.739-.084 5.33-.127 6.572-.568a10.343 10.343 0 007.225-10.021 10.441 10.441 0 00-7.12-10.022c-1.137-.42-1.77-.484-6.572-.568l-5.33-.083V11.71zm10.3-6.08a6.526 6.526 0 013.813 3.768 6.578 6.578 0 01-3.033 8.062c-.97.505-1.349.568-3.75.632l-2.697.084V5.29h2.276a13.43 13.43 0 013.392.34zm16.473-4.088c-.906 2.527-6.973 20.379-6.973 20.563 0 .17.633.232 2.36.19l2.335-.054.737-2.168.716-2.147h8.72l.717 2.21.716 2.21h2.38c.794.025 1.59-.003 2.38-.084 0-.105-6.825-20.23-7.056-20.82-.127-.316-.506-.36-3.496-.36-3.283-.003-3.368-.003-3.536.46zm5.203 8.105l1.474 4.484H47.3c-2.443 0-3.139-.063-3.055-.274l1.538-4.61c.41-1.445.939-2.854 1.58-4.211.087.085.803 2.169 1.625 4.61zm12.048 2.064v10.631h4.424V1.08h-4.424v10.631zm32.017 0v10.631h4.635V13.5h9.058v8.842h4.634V1.08h-4.634v8.632h-9.058V1.08h-4.635v10.631zm22.75 0v10.631h4.424V1.08h-4.424v10.631z" fill="#1A1A1A"/></svg>