<svg width="186" height="34" fill="none" xmlns="http://www.w3.org/2000/svg"><path fill-rule="evenodd" clip-rule="evenodd" d="M38.85.561a16.55 16.55 0 0111.77 4.68 16.23 16.23 0 013.54 5.14c.868 2 1.3 4.161 1.27 6.34a16 16 0 01-1.27 6.35 16.912 16.912 0 01-3.54 5.14 15.711 15.711 0 01-5.27 3.41 16.211 16.211 0 01-6.5 1.27H26.51V.562h12.34zm4.09 25.44a8.812 8.812 0 003.16-2.14 10.483 10.483 0 002-3.23c.49-1.24.734-2.565.72-3.9a10.722 10.722 0 00-.72-4 9.311 9.311 0 00-2-3.19 9.9 9.9 0 00-3.16-2.18 11 11 0 00-4.09-.78h-5.79v20.24h5.79a9.77 9.77 0 004.09-.82z" fill="#fff"/><path d="M100.76.562v32.31h-6.6V.561h6.6zm30.75 19.65c-1 3.71-3.65 6.87-8.91 6.87-6.89 0-9.09-5.36-9.09-10.36 0-5 2.21-10.35 9.07-10.35 5.26 0 7.93 3.13 8.91 6.87h6.76c-1.33-7.94-7.19-13.24-15.41-13.24-9.37 0-16.2 6.86-16.2 16.72s6.8 16.73 16.2 16.73c8.22 0 14.08-5.27 15.41-13.21h-6.74v-.03zm54-19.65v32.31h-6.6V.561h6.6zm-35.1 0v13.16h14.5V.562h6.6v32.31h-6.6v-13.41h-14.5v13.41h-6.6V.561h6.6z" fill="#fff"/><path fill-rule="evenodd" clip-rule="evenodd" d="M10.39.011a9.89 9.89 0 109.89 9.89 9.881 9.881 0 00-9.89-9.89zm0 13.92a4.07 4.07 0 11.01 0h-.01zm71.67 18.94h7l-11-32.31H67.92L56.8 32.872h7l2.17-6.64h13.91l2.18 6.64zm-14.21-12.3l5.11-15.46 5.07 15.46H67.85z" fill="#fff"/></svg>