<svg width="32" height="32" fill="none" xmlns="http://www.w3.org/2000/svg"><path d="M24.939 24.395a2.11 2.11 0 11-2.987 2.987 2.11 2.11 0 112.987-2.987m-14.667 0a2.11 2.11 0 11-2.987 2.986 2.112 2.112 0 012.987-2.986m3.061-19.062h5.334c.736 0 1.333.598 1.333 1.334V20H2.667" stroke="#fff" stroke-width="1.5" stroke-linecap="round" stroke-linejoin="round"/><path d="M6.667 25.888H4a1.334 1.334 0 01-1.333-1.333v-7.222m17.333-8h5.764a1.33 1.33 0 011.237.839l2.142 5.352c.125.315.19.65.19.99v7.93c0 .736-.597 1.333-1.333 1.333h-2.441m-4.226.116h-10.44" stroke="#fff" stroke-width="1.5" stroke-linecap="round" stroke-linejoin="round"/><path d="M29.333 18.667H24v-5.334h4.267m-25.6-8h6.666m-6.666 4h4m-2.667 4H2.667" stroke="#fff" stroke-width="1.5" stroke-linecap="round" stroke-linejoin="round"/></svg>