<svg width="32" height="32" fill="none" xmlns="http://www.w3.org/2000/svg"><path d="M16 22.773V28M4 28v-1.962a4 4 0 013.216-3.922l3.794-.76c.314-.062.64.002.906.18v0a7.363 7.363 0 008.168 0v0c.267-.178.592-.242.906-.18l3.795.76A4 4 0 0128 26.038V28M21.333 9.864v3.47A5.333 5.333 0 0116 18.666v0a5.333 5.333 0 01-5.333-5.334V9.864m8.135 8.01l.965 3.862m-6.565-3.862l-.966 3.862" stroke="#fff" stroke-width="1.5" stroke-linecap="round" stroke-linejoin="round"/><path clip-rule="evenodd" d="M8.13 8.608l5.938 2.94a4.358 4.358 0 003.864 0l5.939-2.94a1.42 1.42 0 000-2.55l-5.94-2.94a4.358 4.358 0 00-3.863 0L8.13 6.058a1.42 1.42 0 000 2.55z" stroke="#fff" stroke-width="1.5" stroke-linecap="round" stroke-linejoin="round"/><path d="M24.667 7.38v3.466" stroke="#fff" stroke-width="1.5" stroke-linecap="round" stroke-linejoin="round"/></svg>