<svg width="33" height="32" fill="none" xmlns="http://www.w3.org/2000/svg"><path d="M3.847 18.026c0-6.458 5.391-11.711 12.017-11.711 2-.003 3.97.492 5.736 1.442a12.216 12.216 0 014.387 4.002C24.36 7.16 19.855 4 14.785 4 8.253 4 2.94 9.148 2.94 15.476a11.164 11.164 0 001.197 4.98 11.416 11.416 0 01-.29-2.43zm24.157-5.147H25.84a.186.186 0 00-.158.06.192.192 0 00-.048.162c.077.567.11 1.14.1 1.711 0 2.139-.255 5.213-2.578 8.13l-.165.207s-1.393-9.846-1.422-10.041c0 0-.008-.23-.196-.23h-2.178c-.206 0-.193.22-.193.22-.05 1.14-.679 10.62-7.525 12.15a7.74 7.74 0 004.765-1.26 7.743 7.743 0 002.302-2.108 7.833 7.833 0 001.293-2.853s.836 5.285.946 6.5l.007.08-.067.035a13.237 13.237 0 01-10.706.824 13.339 13.339 0 01-4.694-2.869 13.504 13.504 0 01-3.157-4.532 12.77 12.77 0 004.417 7.209 12.538 12.538 0 007.916 2.815c6.98 0 11.13-5.903 11.846-10.097 0 0 .94 6.114.965 6.314h2.855c-.042-.263-1.933-12.014-1.965-12.206 0 0-.01-.22-.195-.22l-.002-.001z" fill="#fff"/></svg>