<svg width="200" height="118" fill="none" xmlns="http://www.w3.org/2000/svg"><path fill="#32A3FD" d="M0 0h200v118H0z"/><g clip-path="url(#clip0_9_417)"><path d="M116.342 69.355a5.285 5.285 0 01-1.415.822 5.67 5.67 0 01-2.153.383 3.947 3.947 0 01-1.698-.306 3.983 3.983 0 01-1.411-1.002 5.792 5.792 0 01-1.128-3.87c0-1.671.36-2.921 1.066-3.706a4.185 4.185 0 013.268-1.214 6.186 6.186 0 012.14.36c.486.153.936.404 1.324.737a.79.79 0 01.223.554v6.683a.82.82 0 01-.213.557l-.003.002zm3.772-18.074h-3.226c-.324 0-.329.379-.329.379v6.69l-.461-.245a5.492 5.492 0 00-1.558-.554 10.348 10.348 0 00-1.924-.159 8.5 8.5 0 00-6.123 2.221c-1.5 1.451-2.287 3.59-2.274 6.187a8.876 8.876 0 001.911 5.78c1.253 1.508 3.122 2.273 5.553 2.273 3.489 0 4.87-2.127 4.87-2.127l.01 2.062h3.897V51.674s.016-.392-.342-.392l-.004-.001zm-19.351.001h-3.157a.37.37 0 00-.384.287.379.379 0 000 .173v3.426h3.893v-3.477a.355.355 0 00-.211-.382.342.342 0 00-.151-.027h.01zm51.606 18.719a.542.542 0 01-.29.545 7.484 7.484 0 01-3.745.646 2.7 2.7 0 01-1.606-.555 2.75 2.75 0 01-.966-1.41c-.044-.206-.426-2.594 1.855-3.344a8.217 8.217 0 014.381.113c.295.081.37.253.37.606l.001 3.399zm-2.89-12.658c-4.574 0-6.185 2.8-6.694 4.147l-.177.486 1.522.525s.984-2.843 4.861-2.68c3.919.161 3.46 3.402 3.429 3.92a11.383 11.383 0 00-7.27.332c-2.527 1.168-2.917 3.518-2.838 5.24.117 2.549 2.344 4.341 5.241 4.504 2.6.148 3.771-.427 4.846-1.515l-.029 1.483h3.432V62.587c.071-1.931-1.278-5.24-6.323-5.24v-.004zm-21.767 6.651c-.181-.005-.197-.184-.194-.273a4.273 4.273 0 011.154-2.343 4.254 4.254 0 011.408-.913 4.212 4.212 0 011.647-.294 3.96 3.96 0 012.705.963 4.374 4.374 0 011.317 2.397c.036.116.101.45-.17.45l-7.867.013zm9.689-4.158a7.091 7.091 0 00-2.54-1.867 7.024 7.024 0 00-3.09-.573 8.197 8.197 0 00-3.195.55 8.26 8.26 0 00-2.74 1.747 7.972 7.972 0 00-1.8 2.748 8.043 8.043 0 00-.545 3.248 7.867 7.867 0 00.527 3.196 7.789 7.789 0 001.77 2.701c1.536 1.46 3.718 2.199 6.478 2.199 5.346 0 6.507-3.722 6.946-4.954l-1.383-.45c-1.231 2.271-3.994 2.407-5.607 2.302a5.735 5.735 0 01-3.027-1.077 4.307 4.307 0 01-1.667-2.86l-.076-.502h12.028c-.044-2.691-.733-4.851-2.079-6.409v.001zm-90.804.754c0-11.709 9.773-21.233 21.785-21.233a21.884 21.884 0 0110.4 2.614 22.147 22.147 0 017.953 7.257c-2.95-8.336-11.117-14.067-20.31-14.067-11.841 0-21.473 9.333-21.473 20.805a20.24 20.24 0 002.17 9.03 20.699 20.699 0 01-.525-4.406zm43.794-9.332H86.47a.34.34 0 00-.364.245.35.35 0 00-.01.157c.141 1.028.202 2.066.182 3.103 0 3.877-.463 9.45-4.675 14.74l-.298.374s-2.526-17.85-2.578-18.204c0 0-.015-.415-.356-.415h-3.949c-.373 0-.35.399-.35.399-.09 2.064-1.23 19.25-13.64 22.026 3.047.2 6.078-.602 8.637-2.286a14.038 14.038 0 004.174-3.82 14.2 14.2 0 002.344-5.173s1.516 9.583 1.715 11.785l.013.144-.122.064a23.997 23.997 0 01-19.41 1.494 24.18 24.18 0 01-8.51-5.2 24.482 24.482 0 01-5.724-8.218 23.151 23.151 0 008.01 13.07 22.731 22.731 0 0014.35 5.103c12.655 0 20.178-10.703 21.477-18.306 0 0 1.705 11.086 1.749 11.448h5.177L90.75 51.66s-.019-.401-.356-.401l-.003-.001zm6.838 6.21v16.319l3.816-.006V57.468h-3.816z" fill="#fff"/></g><defs><clipPath id="clip0_9_417"><path fill="#fff" transform="translate(43.548 35.161)" d="M0 0h112.258v45.484H0z"/></clipPath></defs></svg>