<svg width="91" height="37" fill="none" xmlns="http://www.w3.org/2000/svg"><path d="M59.074 27.46c-.342.277-.724.5-1.132.658a4.535 4.535 0 01-1.723.306 3.157 3.157 0 01-1.358-.244 3.186 3.186 0 01-1.129-.802 4.638 4.638 0 01-.902-3.096c0-1.337.288-2.337.852-2.965a3.377 3.377 0 012.614-.971 4.945 4.945 0 011.713.287c.388.123.749.324 1.06.59a.635.635 0 01.178.443v5.347a.66.66 0 01-.17.445l-.003.002zM62.092 13H59.51c-.259 0-.263.304-.263.304v5.352l-.369-.196a4.398 4.398 0 00-1.246-.444 8.29 8.29 0 00-1.54-.126 6.801 6.801 0 00-4.898 1.776c-1.2 1.161-1.829 2.872-1.819 4.95a7.098 7.098 0 001.53 4.624c1.001 1.206 2.497 1.818 4.441 1.818 2.792 0 3.897-1.701 3.897-1.701l.007 1.65h3.118V13.315s.013-.313-.274-.313L62.092 13zm-15.481.002h-2.526a.296.296 0 00-.307.23.305.305 0 000 .138v2.74h3.114v-2.78a.287.287 0 00-.068-.234.28.28 0 00-.222-.093h.009zm41.284 14.975a.435.435 0 01-.231.436 5.99 5.99 0 01-2.997.517 2.158 2.158 0 01-1.284-.444 2.196 2.196 0 01-.773-1.128c-.035-.165-.341-2.075 1.484-2.675a6.575 6.575 0 013.505.09c.235.065.295.202.295.484l.001 2.72zM85.583 17.85c-3.659 0-4.948 2.24-5.355 3.318l-.142.389 1.218.42s.787-2.274 3.889-2.144c3.135.129 2.768 2.722 2.743 3.136a9.106 9.106 0 00-5.816.266c-2.022.934-2.334 2.814-2.27 4.192.093 2.038 1.875 3.472 4.192 3.603 2.08.118 3.017-.342 3.877-1.213l-.023 1.187h2.746v-8.959c.057-1.545-1.023-4.192-5.059-4.192v-.003zM68.17 23.172c-.145-.005-.158-.148-.155-.22a3.415 3.415 0 01.923-1.874 3.4 3.4 0 012.444-.965 3.168 3.168 0 012.164.77 3.5 3.5 0 011.053 1.918c.029.093.08.36-.136.36l-6.293.01zm7.751-3.327a5.672 5.672 0 00-2.033-1.493 5.617 5.617 0 00-2.471-.46 6.554 6.554 0 00-2.556.44c-.815.316-1.56.79-2.192 1.398a6.373 6.373 0 00-1.44 2.198 6.428 6.428 0 00-.436 2.6 6.28 6.28 0 00.422 2.556 6.202 6.202 0 001.416 2.16c1.229 1.169 2.974 1.76 5.182 1.76 4.276 0 5.205-2.977 5.556-3.963l-1.106-.36c-.984 1.817-3.195 1.926-4.486 1.841a4.588 4.588 0 01-2.42-.861 3.43 3.43 0 01-.895-1.009 3.468 3.468 0 01-.44-1.28l-.06-.401h9.622c-.035-2.153-.586-3.88-1.663-5.127v.001zm-72.644.603c0-9.367 7.82-16.986 17.428-16.986a17.507 17.507 0 018.32 2.091 17.717 17.717 0 016.363 5.805C33.028 4.69 26.495.105 19.141.105 9.667.105 1.96 7.571 1.96 16.75a16.192 16.192 0 001.737 7.223 16.552 16.552 0 01-.421-3.524zm35.036-7.466h-3.137a.272.272 0 00-.29.196.282.282 0 00-.009.126c.113.823.161 1.653.145 2.482 0 3.102-.37 7.56-3.74 11.793l-.238.298s-2.02-14.28-2.063-14.562c0 0-.012-.333-.284-.333h-3.159c-.298 0-.28.32-.28.32-.073 1.65-.984 15.4-10.913 17.62 2.438.16 4.863-.48 6.91-1.828a11.23 11.23 0 003.34-3.056 11.36 11.36 0 001.875-4.14s1.213 7.667 1.372 9.43l.01.114-.098.052a19.196 19.196 0 01-15.528 1.195 19.346 19.346 0 01-6.807-4.16 19.585 19.585 0 01-4.58-6.575A18.521 18.521 0 007.248 32.41a18.186 18.186 0 0011.48 4.083c10.124 0 16.142-8.562 17.182-14.645 0 0 1.364 8.869 1.399 9.158h4.142L38.6 13.304s-.015-.321-.285-.321h-.002zm5.47 4.97v13.054L46.836 31V17.95h-3.053z" fill="#fff"/></svg>