<svg width="24" height="24" fill="none" xmlns="http://www.w3.org/2000/svg"><path d="M22.003 17.002V14c0-.83-1.68-1.501-3.751-1.501-2.071 0-3.75.672-3.752 1.5v6.003c.001.829 1.68 1.5 3.752 1.5s3.75-.671 3.751-1.5V14m-14.376-.133l3.657-2.23V6.984m8.487 2.015a9.001 9.001 0 10-8.773 11.004" stroke="#6C7684" stroke-width="1.5" stroke-linecap="round" stroke-linejoin="round"/><path d="M14.502 14c0 .829 1.68 1.5 3.751 1.5 2.072 0 3.751-.671 3.751-1.5m-7.502 3c0 .829 1.68 1.5 3.751 1.5 2.072 0 3.752-.671 3.752-1.5" stroke="#6C7684" stroke-width="1.5" stroke-linecap="round" stroke-linejoin="round"/></svg>