<svg width="32" height="32" fill="none" xmlns="http://www.w3.org/2000/svg"><path d="M24.594 18.514c.61-.437 1.185-.92 1.72-1.447m-20.628 0a14.5 14.5 0 001.72 1.451M14 7.155V4.662a2 2 0 012-2.001v0a2 2 0 012 2v2.495" stroke="#fff" stroke-width="1.5" stroke-linecap="round" stroke-linejoin="round"/><circle cx="16" cy="10.664" r="4.002" stroke="#fff" stroke-width="1.5" stroke-linecap="round" stroke-linejoin="round"/><path d="M17.215 14.485l6.76 13.52h2.696v-5.336l-6.81-13.62A4.317 4.317 0 0016 6.663v0c-1.635 0-3.13.924-3.86 2.386l-6.811 13.62v5.336h2.668l6.76-13.52m5.556 6.195a14.64 14.64 0 01-8.65-.011" stroke="#fff" stroke-width="1.5" stroke-linecap="round" stroke-linejoin="round"/><path d="M15.933 10.664a.067.067 0 10.134 0 .067.067 0 00-.134 0" stroke="#fff" stroke-width="1.5" stroke-linecap="round" stroke-linejoin="round"/></svg>